<svg enable-background="new 0 0 686.5 510.8" viewBox="0 0 686.5 510.8" xmlns="http://www.w3.org/2000/svg" xmlns:xlink="http://www.w3.org/1999/xlink"><linearGradient id="a" gradientTransform="matrix(1 0 0 -1 0 -1716.8737)" gradientUnits="userSpaceOnUse" x1="274.0247" x2="274.6359" y1="-2131.7893" y2="-2241.6885"><stop offset="0" stop-color="#62efa9"/><stop offset=".4531" stop-color="#5ac5a1" stop-opacity="0"/></linearGradient><linearGradient id="b" gradientTransform="matrix(1 0 0 -1 0 -1716.8737)" gradientUnits="userSpaceOnUse" x1="89.8611" x2="482.2459" y1="-2128.9746" y2="-2156.8562"><stop offset="0" stop-color="#62efa9"/><stop offset="1" stop-color="#5ac5a1"/></linearGradient><linearGradient id="c" gradientTransform="matrix(.9194 .3934 .3934 -.9194 356.4329 -1753.3953)" gradientUnits="userSpaceOnUse" x1="496.5691" x2="547.0914" y1="-1789.0911" y2="-1907.3226"><stop offset="0" stop-color="#5ac5a1"/><stop offset=".5365" stop-color="#5ac5a1" stop-opacity="0"/></linearGradient><linearGradient id="d" gradientTransform="matrix(1 0 0 -1 0 -1716.8737)" gradientUnits="userSpaceOnUse" x1="465.6818" x2="463.0938" y1="-1810.0083" y2="-2036.1935"><stop offset="0" stop-color="#fc7373"/><stop offset=".3177" stop-color="#fc7373" stop-opacity="0"/></linearGradient><path d="m89.5 299.7h369c2.6 0 4.7 2.1 4.7 4.7v200.6c0 2.6-2.1 4.7-4.7 4.7h-369c-2.6 0-4.7-2.1-4.7-4.7v-200.5c0-2.6 2.1-4.8 4.7-4.8z" fill="#fff"/><path d="m118.3 359.5h-1.6l-6.8-10.4h-.1c.1 1.2.1 2.3.1 3.4v7h-1.3v-12.4h1.6l6.7 10.3h.1c0-.2 0-.6-.1-1.5 0-.8-.1-1.4 0-1.8v-7.1h1.3v12.5zm4.6 0h-1.4v-9.3h1.4zm-1.6-11.8c0-.3.1-.6.2-.7.2-.2.4-.2.6-.2s.4.1.6.2c.2.2.2.4.2.7s-.1.6-.2.7c-.2.2-.4.2-.6.2s-.4-.1-.6-.2c-.1-.2-.2-.4-.2-.7zm5.9 7c.2-.3.6-.8 1.1-1.4l3-3.2h1.7l-3.8 4 4 5.3h-1.7l-3.3-4.4-1.1.9v3.5h-1.4v-13.2h1.4v7c.1.4.1.9.1 1.5zm11.7 5c-1.4 0-2.5-.4-3.3-1.3-.8-.8-1.2-2-1.2-3.5s.4-2.7 1.1-3.6 1.7-1.3 3-1.3c1.2 0 2.1.4 2.8 1.2s1 1.8 1 3v.9h-6.4c0 1.1.3 1.9.8 2.5s1.3.8 2.2.8c1 0 2-.2 3-.6v1.3c-.5.2-1 .4-1.4.5-.5 0-1 .1-1.6.1zm-.4-8.5c-.7 0-1.3.2-1.8.7-.4.5-.7 1.2-.8 2h4.9c0-.9-.2-1.6-.6-2-.4-.5-1-.7-1.7-.7zm7.7 6.3.1.2c-.1.6-.4 1.2-.6 2-.3.8-.6 1.4-.9 2.1h-1.1c.2-.6.3-1.3.5-2.2s.3-1.6.4-2.1zm7.5 2v-12.4h1.4v12.4zm10.9 0v-6c0-.8-.2-1.3-.5-1.7s-.9-.6-1.6-.6c-1 0-1.7.3-2.1.8-.5.5-.7 1.4-.7 2.6v4.9h-1.4v-9.3h1.1l.2 1.3h.1c.3-.5.7-.8 1.2-1.1s1.1-.4 1.7-.4c1.1 0 2 .3 2.5.8.6.5.8 1.4.8 2.6v6.1zm8.1.2c-1.3 0-2.4-.4-3.1-1.2s-1.1-2-1.1-3.5c0-1.6.4-2.8 1.1-3.6.8-.8 1.8-1.3 3.2-1.3.4 0 .9 0 1.3.1s.8.2 1 .3l-.4 1.2c-.3-.1-.6-.2-1-.3s-.7-.1-1-.1c-1.9 0-2.8 1.2-2.8 3.6 0 1.1.2 2 .7 2.6s1.1.9 2 .9c.8 0 1.6-.2 2.4-.5v1.2c-.6.4-1.4.6-2.3.6z" fill="#8f90a3"/><path d="m122.6 337h-3.3l-8-12.9h-.1l.1.7c.1 1.4.2 2.6.2 3.8v8.4h-2.5v-16.2h3.2l8 12.9h.1c0-.2 0-.8-.1-1.9 0-1.1-.1-1.9-.1-2.5v-8.5h2.4v16.2zm16.2 0h-3.1l-5.1-7.4-1.6 1.3v6.1h-2.7v-16.2h2.7v7.8c.7-.9 1.4-1.7 2.2-2.6l4.4-5.2h3c-2.8 3.3-4.9 5.7-6.1 7.1zm10.9 0h-9.2v-16.2h9.2v2.2h-6.5v4.4h6.1v2.2h-6.1v5.1h6.5z" fill="#434468"/><path d="m142.4 488.5c0 1.4-.4 2.6-1.1 3.4s-1.7 1.2-3.1 1.2c-1.3 0-2.4-.4-3.1-1.2s-1.1-1.9-1.1-3.4.4-2.6 1.1-3.4 1.8-1.2 3.1-1.2 2.3.4 3.1 1.2 1.1 1.9 1.1 3.4zm-6.7 0c0 1.1.2 1.9.7 2.5.4.6 1.1.8 2 .8s1.5-.3 2-.8c.4-.6.7-1.4.7-2.5s-.2-1.9-.7-2.5c-.4-.6-1.1-.8-1.9-.8-.9 0-1.5.3-2 .8-.6.6-.8 1.4-.8 2.5zm11.2 4.5c-1 0-1.8-.3-2.3-.9s-.8-1.4-.8-2.6c0-1.1.3-2 .8-2.6.6-.6 1.4-.9 2.4-.9.7 0 1.3.1 1.9.4l-.4 1.1c-.6-.2-1.1-.4-1.5-.4-1.2 0-1.7.8-1.7 2.3 0 .8.1 1.3.4 1.7s.7.6 1.3.6 1.2-.2 1.8-.5v1.2c-.3.2-.5.3-.8.3-.3.3-.7.3-1.1.3zm6-1.1c.3 0 .7-.1 1-.2v1.1c-.2.1-.4.1-.6.2-.2 0-.5.1-.8.1-1.4 0-2-.7-2-2.1v-3.6h-.9v-.6l1-.5.5-1.4h.9v1.5h1.9v1.1h-1.9v3.6c0 .3.1.6.3.8.1-.1.3 0 .6 0zm11.1 1h-6v-1.1l2.3-2.3c.7-.7 1.1-1.2 1.3-1.5s.4-.6.5-.8c.1-.3.2-.5.2-.8 0-.4-.1-.7-.4-.9-.2-.2-.6-.3-1-.3-.3 0-.7.1-1 .2s-.7.4-1.1.7l-.8-.9c.5-.4 1-.7 1.4-.9.5-.2 1-.3 1.5-.3.8 0 1.5.2 2 .7.5.4.7 1 .7 1.7 0 .4-.1.8-.2 1.1-.1.4-.4.7-.7 1.1s-.8.9-1.5 1.5l-1.5 1.5v.1h4.2v1.2zm7.2-4.4c0 1.5-.2 2.7-.7 3.4-.5.8-1.3 1.1-2.3 1.1s-1.7-.4-2.2-1.2-.8-1.9-.8-3.4c0-1.6.2-2.7.7-3.5.5-.7 1.3-1.1 2.3-1.1s1.7.4 2.3 1.2c.4.8.7 2 .7 3.5zm-4.6 0c0 1.2.1 2.1.4 2.6s.7.8 1.2.8.9-.3 1.2-.8.4-1.4.4-2.6-.1-2.1-.4-2.6-.7-.8-1.2-.8-.9.3-1.2.8-.4 1.4-.4 2.6zm9.8 4.4h-1.4v-5.7c0-.7 0-1.2 0-1.6-.1.1-.2.2-.3.3s-.6.5-1.4 1.1l-.7-.9 2.6-2.1h1.2zm6-9c.8 0 1.5.2 2 .6s.7.9.7 1.6c0 .9-.5 1.6-1.6 2.2.7.3 1.2.7 1.5 1.1s.4.8.4 1.3c0 .7-.3 1.3-.8 1.8-.5.4-1.3.7-2.2.7-1 0-1.7-.2-2.2-.6s-.8-1-.8-1.8c0-.5.1-.9.4-1.3s.7-.7 1.4-1.1c-.5-.3-.9-.7-1.2-1-.2-.4-.3-.8-.3-1.2 0-.6.3-1.2.8-1.5.4-.6 1-.8 1.9-.8zm-1.7 6.7c0 .4.1.7.4 1 .3.2.7.3 1.2.3s.9-.1 1.2-.4c.3-.2.4-.6.4-1 0-.3-.1-.6-.4-.9s-.7-.5-1.2-.8l-.2-.1c-.5.2-.9.5-1.2.8-.1.4-.2.8-.2 1.1zm1.6-5.6c-.4 0-.7.1-1 .3-.2.2-.4.5-.4.8 0 .2 0 .4.1.6s.2.3.4.5c.2.1.5.3.9.5.5-.2.8-.4 1-.7.2-.2.3-.5.3-.8s-.1-.6-.4-.8c-.1-.3-.4-.4-.9-.4z" fill="#8f90a3"/><path d="m249.4 495.4c-.4 0-.7-.1-1-.2v-1.2c.3.1.6.1.9.1.8 0 1.2-.5 1.2-1.5v-8.6h1.5v8.6c0 .9-.2 1.6-.7 2.1-.4.5-1 .7-1.9.7zm8.9-2.5-.3-.9c-.3.4-.7.7-1 .8s-.8.2-1.3.2c-.7 0-1.2-.2-1.6-.5-.4-.4-.6-.9-.6-1.5 0-.7.3-1.2.8-1.6s1.3-.5 2.4-.6h1.2v-.4c0-.4-.1-.8-.3-1s-.5-.3-.9-.3c-.3 0-.7.1-1 .2s-.6.2-.9.4l-.5-1c.4-.2.8-.3 1.2-.4s.8-.2 1.2-.2c.9 0 1.5.2 1.9.6s.7 1 .7 1.8v4.5h-1zm-2.1-1c.5 0 .9-.1 1.2-.4s.5-.7.5-1.2v-.6h-.9c-.7 0-1.2.1-1.5.3s-.5.5-.5.9c0 .3.1.5.3.7.3.3.5.3.9.3zm11.1 1h-1.4v-4.1c0-.5-.1-.9-.3-1.2s-.5-.4-1-.4c-.6 0-1 .2-1.3.5-.3.4-.4 1-.4 1.8v3.3h-1.4v-6.7h1.1l.2.9h.1c.2-.3.5-.6.9-.7.4-.2.8-.3 1.2-.3 1.6 0 2.4.8 2.4 2.5v4.4zm10.7 0h-6v-1.1l2.3-2.3c.7-.7 1.1-1.2 1.3-1.5s.4-.6.5-.8c.1-.3.2-.5.2-.8 0-.4-.1-.7-.4-.9-.2-.2-.6-.3-1-.3-.3 0-.7.1-1 .2s-.7.4-1.1.7l-.8-.9c.5-.4 1-.7 1.4-.9.5-.2 1-.3 1.5-.3.8 0 1.5.2 2 .7.5.4.7 1 .7 1.7 0 .4-.1.8-.2 1.1-.1.4-.4.7-.7 1.1s-.8.9-1.5 1.5l-1.5 1.5v.1h4.2v1.2zm7.1-4.4c0 1.5-.2 2.7-.7 3.4-.5.8-1.3 1.1-2.3 1.1s-1.7-.4-2.2-1.2-.8-1.9-.8-3.4c0-1.6.2-2.7.7-3.5.5-.7 1.3-1.1 2.3-1.1s1.7.4 2.3 1.2c.5.8.7 2 .7 3.5zm-4.5 0c0 1.2.1 2.1.4 2.6s.7.8 1.2.8.9-.3 1.2-.8.4-1.4.4-2.6-.1-2.1-.4-2.6-.7-.8-1.2-.8-.9.3-1.2.8-.4 1.4-.4 2.6zm9.8 4.4h-1.4v-5.7c0-.7 0-1.2 0-1.6-.1.1-.2.2-.3.3s-.6.5-1.4 1.1l-.7-.9 2.6-2.1h1.2zm9-5.1c0 1.8-.4 3.1-1.1 3.9-.7.9-1.8 1.3-3.2 1.3-.5 0-.9 0-1.2-.1v-1.2c.4.1.7.2 1.1.2 1 0 1.7-.3 2.2-.8s.7-1.3.8-2.4h-.1c-.2.4-.5.6-.9.8-.3.2-.7.2-1.2.2-.8 0-1.4-.2-1.9-.7-.4-.5-.7-1.2-.7-2 0-.9.3-1.7.8-2.2.5-.6 1.2-.8 2.1-.8.6 0 1.2.2 1.7.5s.8.8 1.1 1.3.5 1.2.5 2zm-3.1-2.7c-.5 0-.9.2-1.1.5-.3.3-.4.8-.4 1.4 0 .5.1.9.4 1.2.2.3.6.4 1.1.4s.9-.1 1.2-.4.5-.6.5-1-.1-.7-.2-1-.3-.6-.6-.7c-.3-.3-.6-.4-.9-.4z" fill="#8f90a3"/><path d="m383 492.9-.9-2.5h-3.4l-.9 2.5h-1.5l3.3-8.9h1.6l3.3 8.9zm-1.3-3.7-.8-2.4c-.1-.2-.1-.4-.3-.8-.1-.3-.2-.6-.2-.8-.1.5-.3 1-.5 1.6l-.8 2.3h2.6zm7.3 3.8c-.8 0-1.5-.3-2-.9h-.1c.1.6.1.9.1 1v2.8h-1.4v-9.7h1.2c0 .1.1.4.2.9h.1c.4-.7 1.1-1 2-1 .8 0 1.5.3 2 .9s.7 1.5.7 2.6-.2 2-.7 2.6c-.6.5-1.3.8-2.1.8zm-.4-5.8c-.6 0-1 .2-1.2.5-.3.3-.4.9-.4 1.6v.2c0 .8.1 1.4.4 1.8s.7.5 1.3.5c.5 0 .9-.2 1.1-.6.3-.4.4-1 .4-1.7 0-.8-.1-1.3-.4-1.7-.2-.4-.6-.6-1.2-.6zm8.2-1.1c.3 0 .5 0 .7.1l-.1 1.3c-.2 0-.4-.1-.6-.1-.6 0-1 .2-1.4.6s-.5.9-.5 1.5v3.5h-1.4v-6.7h1.1l.2 1.2h.1c.2-.4.5-.7.9-1 .2-.3.5-.4 1-.4zm10.7 6.8h-6v-1.1l2.3-2.3c.7-.7 1.1-1.2 1.3-1.5s.4-.6.5-.8c.1-.3.2-.5.2-.8 0-.4-.1-.7-.4-.9-.2-.2-.6-.3-1-.3-.3 0-.7.1-1 .2s-.7.4-1.1.7l-.8-.9c.5-.4 1-.7 1.4-.9.5-.2 1-.3 1.5-.3.8 0 1.5.2 2 .7.5.4.7 1 .7 1.7 0 .4-.1.8-.2 1.1-.1.4-.4.7-.7 1.1s-.8.9-1.5 1.5l-1.5 1.5v.1h4.2v1.2zm7.1-4.4c0 1.5-.2 2.7-.7 3.4-.5.8-1.3 1.1-2.3 1.1s-1.7-.4-2.2-1.2-.8-1.9-.8-3.4c0-1.6.2-2.7.7-3.5.5-.7 1.3-1.1 2.3-1.1s1.7.4 2.3 1.2c.5.8.7 2 .7 3.5zm-4.6 0c0 1.2.1 2.1.4 2.6s.6.8 1.2.8c.5 0 .9-.3 1.2-.8s.4-1.4.4-2.6-.1-2.1-.4-2.6-.7-.8-1.2-.8-.9.3-1.2.8-.4 1.4-.4 2.6zm9.9 4.4h-1.4v-5.7c0-.7 0-1.2 0-1.6-.1.1-.2.2-.3.3s-.6.5-1.4 1.1l-.7-.9 2.6-2.1h1.2zm8.9-5.1c0 1.8-.4 3.1-1.1 3.9-.7.9-1.8 1.3-3.2 1.3-.5 0-.9 0-1.2-.1v-1.2c.4.1.7.2 1.1.2 1 0 1.7-.3 2.2-.8s.7-1.3.8-2.4h-.1c-.2.4-.5.6-.9.8-.3.2-.7.2-1.2.2-.8 0-1.4-.2-1.9-.7s-.7-1.2-.7-2c0-.9.3-1.7.8-2.2.5-.6 1.2-.8 2.1-.8.6 0 1.2.2 1.7.5s.8.8 1.1 1.3c.4.5.5 1.2.5 2zm-3.1-2.7c-.5 0-.9.2-1.1.5-.3.3-.4.8-.4 1.4 0 .5.1.9.4 1.2.2.3.6.4 1.1.4s.9-.1 1.2-.4.5-.6.5-1-.1-.7-.2-1-.3-.6-.6-.7c-.3-.3-.6-.4-.9-.4z" fill="#8f90a3"/><path d="m85.2 433.3c3.9-1 6.9-1.9 11.5-2.8 1.3-.3 1.3.4 2 .5 0 0 .5-.7 1.4-.1.1.1 6.7 1.7 8.5.8.5-.3.7-1.6 1.8-.9 1 .7 1.8.1 3.5.3 1.5.2 3.4-2 3.6-2.2 1.3-1.4.6-1 3.7 0 .9.3 4 .4 4 .5.1.2.7 1.9 2 1.7 1.5-.3 3.4-.6 4.2-.9 1.3-.6 1.1-2.4 2.2-1.8.5.3 2.6 2 5.3 1.4 4.6-.9 2.2-.2 7.6.2 3.7.2 5.9-1.2 8-1 2.5.2 1.6 2.2 2.6.2.9-2-.3-2.2 1.8-4.3.8-.8 2.1-.2 3.1.1 1.3.5 7.9-1.9 8.4-2.1 3.1-1.2 1.7 0 4 .7 2.7.9 11.3-2 12.5-2.3 5.2-1.4 2.2 1.6 2.4 2.1.1.5-.2 3.7 5.2 2 1.1-.4 2.9 1.6 3.3 1.9 2.5 1.6 4.2-.6 5.5-1 2.3-.8 3.5 1.7 5.6 2.5 2.5 1 6.1-1.6 6.8-2 1.2-.7-.2.6 1.1-.1 1.3-.6 2-3.6 5.3-3.8 1.5-.1 1.5 1.4 2.7 1.4 2.7 0 2.2-1.7 4.4-.8.6.3 4.8 2.4 6.9 2.3 2-.1 9.4-2.5 10.1-2.2.5.3 2.4 2.5 4 2.2 3.3-.5 6.4-2.7 11.8-1.6 2.6.5 3.5 1.2 7.6.8 1.7-.1 3.7 1.5 4.9 1.7 2.2.5 6.9-1 7.7-1.3 3-.8.6.4 2.9-.1 4.2-.8 5-2 9-2.8 2.6-.5.8 1.2 2.8 1.1 3.2-.1 7.2-1.5 10.6-1.3 2.3.1.2 1.3 3.7 1.4 2.9 0 5-.8 7.6-.2 3 .7 1.7.8 6 .2h.1c2.1-.3 10.3-1.6 13.2-1.2 2.4.3 2.2 2 6.8 1.3 3.6-.6 8.1-1.4 10.4-2.2.2-.1.4-.1.3-.1s-.2.1-.3.1c-.2.1-.4.1-.4.2-.3.3 1.5-.1 1.8-.1 2.6-.4 12-2 15.6-1.7 4.6.3.3 1 7.6 0 4.9-.7 7.5-4.3 9.4-3 2.2 1.5 7.2-4.2 12.4-4.8 4.7-.6 10 11.3 12.4 12.2 3.3 1.3 3.3-3.8 7.5-4.7 9 2.1 8.7-1.9 9-1.7 1.3.6 7 4.1 9.6 4.6 6 1.2 6.5-2.6 14.2-2.6 3.2 0 1.7.6 6.1 0 1.1-.1 1.8-.3 3.1-.3v66.7h-378v-53.1z" fill="url(#a)" fill-opacity=".2"/><path d="m85.2 434c3.9-1 6.9-2 11.5-2.9 1.3-.3 1.3.4 2 .5 0 0 .5-.7 1.4-.1.1.1 6.7 1.7 8.5.8.5-.3.7-1.6 1.8-.9 1 .7 1.8.1 3.5.3 1.5.2 3.4-2.1 3.6-2.3 1.3-1.5.6-1 3.7 0 .9.3 4 .4 4 .5.1.2.7 2 2 1.8 1.5-.3 3.4-.6 4.2-1 1.3-.6 1.1-2.5 2.2-1.9.5.3 2.6 2.1 5.3 1.5 4.6-1 2.2-.2 7.6.2 3.7.3 5.9-1.3 8-1 2.5.2 1.6 2.3 2.6.2.9-2-.3-2.3 1.8-4.4.8-.8 2.1-.2 3.1.1 1.3.5 7.9-1.9 8.4-2.1 3.1-1.2 1.7 0 4 .7 2.7 1 11.3-2.1 12.5-2.4 5.2-1.5 2.2 1.7 2.4 2.2.1.5-.2 3.9 5.2 2.1 1.1-.4 2.9 1.7 3.3 1.9 2.5 1.7 4.2-.6 5.5-1.1 2.3-.8 3.5 1.8 5.6 2.6 2.5 1 6.1-1.7 6.8-2.1 1.2-.7-.2.6 1.1-.1s2-3.7 5.3-4c1.5-.1 1.5 1.4 2.7 1.4 2.7 0 2.2-1.7 4.4-.8.6.3 4.8 2.5 6.9 2.4 2-.1 9.4-2.6 10.1-2.3.5.3 2.4 2.6 4 2.3 3.3-.6 6.4-2.8 11.8-1.6 2.6.6 3.5 1.2 7.6.8 1.7-.1 3.7 1.5 4.9 1.8 2.2.5 6.9-1.1 7.7-1.3 3-.9.6.4 2.9-.1 4.2-.8 5-2.1 9-2.9 2.6-.5.8 1.2 2.8 1.1 3.2-.1 7.2-1.5 10.6-1.4 2.3.1.2 1.4 3.7 1.4 2.9 0 5-.9 7.6-.2 3 .7 1.7.9 6 .2 1.8-.3 10.4-1.7 13.4-1.3 2.4.3 2.2 2.1 6.8 1.3 3.7-.6 8.5-1.5 10.7-2.3.3-.1-.6.2-.7.3-.3.3 1.5-.1 1.8-.1 2.6-.4 12-2 15.6-1.8 4.6.4.3 1 7.6 0 4.9-.7 7.5-4.5 9.4-3.1 2.2 1.5 7.2-4.4 12.4-5 4.7-.6 10 11.7 12.4 12.6 3.3 1.4 3.3-3.9 7.5-4.8 9 2.1 8.7-2 9-1.8 1.3.6 7 4.2 9.6 4.7 6 1.2 6.5-2.7 14.2-2.7 3.2 0 1.7.6 6.1 0 1.1-.1 1.8-.3 3.1-.3" fill="none" stroke="url(#b)" stroke-linecap="round" stroke-linejoin="round" stroke-width="2.1185"/><path d="m402.8 366.1h-3.2v-1.4h3.2v-3.3h1.4v3.3h3.2v1.4h-3.2v3.3h-1.4zm11.8 5.1h-1.9v-7.6c0-.9 0-1.6.1-2.2-.1.1-.3.3-.5.4-.2.2-.8.6-1.8 1.5l-.9-1.2 3.5-2.7h1.6v11.8zm4.2-1c0-.4.1-.7.3-.9s.5-.3.9-.3.7.1.9.3.3.5.3.9-.1.7-.3.9-.5.3-.9.3-.7-.1-.9-.3c-.2-.3-.3-.6-.3-.9zm12.1-5.8c0 2.3-.5 4-1.4 5.2-.9 1.1-2.3 1.7-4.2 1.7-.7 0-1.2 0-1.5-.1v-1.6c.5.1 1 .2 1.4.2 1.3 0 2.2-.3 2.9-1 .6-.7 1-1.8 1-3.2h-.1c-.3.5-.7.8-1.2 1-.4.2-1 .3-1.6.3-1 0-1.9-.3-2.5-1-.6-.6-.9-1.5-.9-2.7s.3-2.2 1-2.9 1.6-1.1 2.8-1.1c.8 0 1.6.2 2.2.6s1.1 1 1.4 1.8c.5.8.7 1.7.7 2.8zm-4.1-3.6c-.7 0-1.2.2-1.5.6s-.5 1-.5 1.8c0 .7.2 1.2.5 1.6s.8.6 1.5.6c.6 0 1.2-.2 1.6-.6s.7-.8.7-1.3-.1-.9-.3-1.3-.4-.7-.8-1-.8-.4-1.2-.4zm6.9 10.4 4.6-10.1h-6.1v-1.7h8.1v1.3l-4.6 10.4h-2z" fill="#5ac5a1"/><path d="m378.5 322.8c1.9 0 3.4.4 4.5 1.3s1.7 2 1.7 3.5c0 2.1-1.2 3.7-3.7 4.9 1.6.8 2.7 1.6 3.3 2.5.7.9 1 1.8 1 2.9 0 1.6-.6 3-1.8 4s-2.9 1.5-4.9 1.5c-2.2 0-3.9-.5-5-1.4-1.2-.9-1.8-2.2-1.8-4 0-1.1.3-2.1.9-3s1.7-1.7 3.1-2.4c-1.2-.7-2.1-1.5-2.6-2.3s-.8-1.7-.8-2.7c0-1.4.6-2.6 1.7-3.5 1-.8 2.5-1.3 4.4-1.3zm-3.7 15.1c0 .9.3 1.7 1 2.2s1.6.8 2.7.8c1.2 0 2.1-.3 2.7-.8.7-.5 1-1.3 1-2.2 0-.7-.3-1.4-.9-2s-1.5-1.2-2.7-1.7l-.4-.2c-1.2.5-2.1 1.1-2.6 1.8-.6.6-.8 1.3-.8 2.1zm3.6-12.6c-.9 0-1.6.2-2.2.7-.6.4-.8 1.1-.8 1.8 0 .5.1.9.3 1.3s.5.7.9 1 1 .7 1.9 1.1c1.1-.5 1.9-1 2.3-1.5.5-.5.7-1.2.7-1.9 0-.8-.3-1.4-.8-1.8-.6-.4-1.3-.7-2.3-.7zm22.6 7.8c0 3.5-.6 6.1-1.7 7.7-1.1 1.7-2.8 2.5-5.1 2.5-2.2 0-3.9-.9-5.1-2.6-1.1-1.7-1.7-4.3-1.7-7.7 0-3.5.6-6.1 1.7-7.8s2.8-2.5 5.1-2.5c2.2 0 3.9.9 5.1 2.6 1.1 1.9 1.7 4.4 1.7 7.8zm-10.3 0c0 2.7.3 4.7.8 5.8.6 1.2 1.5 1.8 2.7 1.8s2.1-.6 2.7-1.8.9-3.1.9-5.8-.3-4.6-.9-5.8-1.5-1.8-2.7-1.8-2.1.6-2.7 1.8c-.6 1.1-.8 3.1-.8 5.8zm13 8.3c0-.7.2-1.2.5-1.5.3-.4.8-.5 1.5-.5s1.2.2 1.5.6.5.9.5 1.5-.2 1.2-.5 1.5c-.3.4-.8.6-1.5.6s-1.2-.2-1.5-.6-.5-1-.5-1.6zm20.4-9.8c0 3.9-.8 6.9-2.4 8.8s-4 2.9-7.2 2.9c-1.2 0-2.1-.1-2.6-.2v-2.7c.8.2 1.6.3 2.4.3 2.2 0 3.8-.6 4.9-1.8s1.6-3 1.8-5.5h-.2c-.5.8-1.2 1.4-2 1.8s-1.6.5-2.7.5c-1.8 0-3.2-.6-4.2-1.7s-1.5-2.6-1.5-4.5c0-2.1.6-3.7 1.8-5 1.2-1.2 2.8-1.9 4.8-1.9 1.4 0 2.7.3 3.7 1 1.1.7 1.9 1.7 2.4 3 .7 1.6 1 3.2 1 5zm-7-6.1c-1.1 0-2 .4-2.6 1.1s-.9 1.7-.9 3c0 1.1.3 2 .8 2.7.6.6 1.4 1 2.5 1s2-.3 2.7-1c.7-.6 1.1-1.4 1.1-2.3 0-.8-.2-1.6-.5-2.3s-.7-1.3-1.3-1.7c-.4-.3-1-.5-1.8-.5zm23.5 13.2h-2.7v4.4h-3.1v-4.4h-9.1v-2.5l9.1-13.2h3.1v13h2.7zm-5.9-2.6v-5c0-1.8 0-3.2.1-4.4h-.1c-.3.6-.7 1.3-1.2 2.2l-5 7.2z" fill="#434468"/><path d="m159.9 458.7v15.1" fill="none" stroke="#a0b1c6" stroke-opacity=".27" stroke-width="1.1769"/><path d="m274.9 458.7v15.1" fill="none" stroke="#a0b1c6" stroke-opacity=".27" stroke-width="1.1769"/><path d="m403.1 458.7v15.1" fill="none" stroke="#a0b1c6" stroke-opacity=".27" stroke-width="1.1769"/><path clip-rule="evenodd" d="m61.1 28.1c-3.4 0-6.2 2.8-6.2 6.2l-.1 165.7c0 3.4 2.8 6.2 6.2 6.2h90.9c.8 0 1.6.3 2.1.9l8.5 8.2c1.2 1.2 3.1 1.2 4.3 0l8.5-8.2c.6-.6 1.3-.9 2.2-.9h70.6c3.4 0 6.2-2.8 6.2-6.2l.1-165.7c0-3.4-2.8-6.2-6.2-6.2z" fill="#fff" fill-rule="evenodd"/><path d="m76.2 76.2-3.4-8.8h-.1c.1.7.1 1.5.1 2.5v6.3h-1.1v-10h1.7l3.2 8.2h.1l3.2-8.2h1.7v10h-1.2v-6.4c0-.7 0-1.5.1-2.4h-.1l-3.4 8.8zm9.2 0h-1.1v-7.5h1.1zm-1.2-9.5c0-.3.1-.4.2-.6.1-.1.3-.2.5-.2s.3.1.5.2c.1.1.2.3.2.6s-.1.4-.2.6c-.1.1-.3.2-.5.2s-.4-.1-.5-.2c-.2-.1-.2-.3-.2-.6zm6.6 9.7c-1.1 0-1.9-.3-2.5-1s-.9-1.6-.9-2.8c0-1.3.3-2.2.9-2.9s1.5-1 2.6-1c.4 0 .7 0 1.1.1s.6.2.8.3l-.3 1c-.2-.1-.5-.2-.8-.2-.3-.1-.6-.1-.8-.1-1.5 0-2.3 1-2.3 2.9 0 .9.2 1.6.6 2.1s.9.7 1.7.7c.6 0 1.3-.1 1.9-.4v1c-.6.1-1.3.3-2 .3zm7.1-7.8c.3 0 .6 0 .9.1l-.2 1.1c-.3-.1-.6-.1-.8-.1-.6 0-1.1.2-1.6.7-.4.5-.6 1.1-.6 1.8v4h-1.1v-7.5h.9l.1 1.4h.1c.3-.5.6-.9 1-1.1s.8-.4 1.3-.4zm8.7 3.9c0 1.2-.3 2.2-.9 2.9s-1.5 1-2.5 1c-.7 0-1.3-.2-1.8-.5s-.9-.8-1.2-1.4-.4-1.3-.4-2.1c0-1.2.3-2.2.9-2.8.6-.7 1.5-1 2.5-1s1.9.3 2.5 1c.6.8.9 1.7.9 2.9zm-5.7 0c0 1 .2 1.7.6 2.2s.9.8 1.7.8c.7 0 1.3-.2 1.7-.7s.6-1.2.6-2.2-.2-1.7-.6-2.2-.9-.7-1.7-.7c-.7 0-1.3.2-1.7.7-.4.4-.6 1.1-.6 2.1zm12.5 1.7c0 .7-.3 1.2-.8 1.6s-1.2.6-2.2.6-1.8-.2-2.3-.5v-1.1c.4.2.7.3 1.2.4.4.1.8.2 1.2.2.6 0 1-.1 1.4-.3.3-.2.5-.5.5-.9 0-.3-.1-.5-.4-.7s-.7-.5-1.5-.7c-.7-.3-1.2-.5-1.5-.7s-.5-.4-.7-.7c-.1-.2-.2-.5-.2-.9 0-.6.2-1.1.7-1.4.5-.4 1.2-.5 2-.5s1.6.2 2.4.5l-.4.9c-.7-.3-1.4-.5-2-.5-.5 0-.9.1-1.2.3s-.4.4-.4.7c0 .2.1.4.2.5s.3.3.5.4.7.3 1.3.6c.9.3 1.5.6 1.8 1 .3.3.4.7.4 1.2zm8.3-1.7c0 1.2-.3 2.2-.9 2.9s-1.5 1-2.5 1c-.7 0-1.3-.2-1.8-.5s-.9-.8-1.2-1.4-.4-1.3-.4-2.1c0-1.2.3-2.2.9-2.8.6-.7 1.5-1 2.5-1s1.9.3 2.5 1c.6.8.9 1.7.9 2.9zm-5.7 0c0 1 .2 1.7.6 2.2s.9.8 1.7.8c.7 0 1.3-.2 1.7-.7s.6-1.2.6-2.2-.2-1.7-.6-2.2-.9-.7-1.7-.7c-.7 0-1.3.2-1.7.7-.4.4-.6 1.1-.6 2.1zm11.1-2.8h-1.9v6.6h-1.1v-6.6h-1.3v-.5l1.3-.4v-.4c0-1.8.8-2.8 2.4-2.8.4 0 .9.1 1.4.2l-.3.9c-.4-.1-.8-.2-1.1-.2-.4 0-.7.1-.9.4s-.3.7-.3 1.4v.5h1.9zm3.8 5.8h.6c.2 0 .3-.1.4-.1v.9c-.1.1-.3.1-.5.1s-.4.1-.6.1c-1.4 0-2.2-.8-2.2-2.3v-4.5h-1.1v-.5l1.1-.5.4-1.7h.7v1.7h2.2v.9h-2.2v4.4c0 .5.1.8.3 1 .2.3.5.5.9.5zm10.6-8.3c-1.1 0-2 .4-2.6 1.1s-1 1.7-.9 3c0 1.3.3 2.3.9 3s1.5 1.1 2.6 1.1c.7 0 1.5-.1 2.4-.4v1c-.7.3-1.5.4-2.6.4-1.5 0-2.6-.4-3.4-1.3s-1.2-2.2-1.2-3.8c0-1 .2-1.9.6-2.7s.9-1.4 1.7-1.8c.7-.4 1.6-.6 2.6-.6s2 .2 2.7.6l-.5 1c-.8-.4-1.5-.6-2.3-.6zm10.8 5.3c0 1.2-.3 2.2-.9 2.9s-1.5 1-2.5 1c-.7 0-1.3-.2-1.8-.5s-.9-.8-1.2-1.4-.4-1.3-.4-2.1c0-1.2.3-2.2.9-2.8.6-.7 1.5-1 2.5-1s1.9.3 2.5 1c.6.8.9 1.7.9 2.9zm-5.7 0c0 1 .2 1.7.6 2.2s.9.8 1.7.8c.7 0 1.3-.2 1.7-.7s.6-1.2.6-2.2-.2-1.7-.6-2.2-.9-.7-1.7-.7c-.7 0-1.3.2-1.7.7-.4.4-.6 1.2-.6 2.1zm11.1-3.8c.3 0 .6 0 .9.1l-.2 1.1c-.3-.1-.6-.1-.8-.1-.6 0-1.1.2-1.6.7-.4.5-.6 1.1-.6 1.8v4h-1.1v-7.5h.9l.1 1.4h.1c.3-.5.6-.9 1-1.1.4-.3.9-.4 1.3-.4zm5.8 7.7c-.5 0-.9-.1-1.3-.3s-.7-.5-1-.8h-.1c.1.4.1.9.1 1.2v3.1h-1.1v-10.8h.9l.2 1h.1c.3-.4.6-.7 1-.9s.8-.3 1.3-.3c1 0 1.8.3 2.3 1s.8 1.6.8 2.9c0 1.2-.3 2.2-.8 2.9-.7.7-1.4 1-2.4 1zm-.1-6.8c-.8 0-1.3.2-1.7.6-.3.4-.5 1.1-.5 2v.3c0 1.1.2 1.8.5 2.3.4.5.9.7 1.7.7.6 0 1.2-.3 1.5-.8.4-.5.6-1.2.6-2.2 0-.9-.2-1.6-.6-2.1s-.9-.8-1.5-.8zm11.7 2.9c0 1.2-.3 2.2-.9 2.9s-1.5 1-2.5 1c-.7 0-1.3-.2-1.8-.5s-.9-.8-1.2-1.4-.4-1.3-.4-2.1c0-1.2.3-2.2.9-2.8.6-.7 1.5-1 2.5-1s1.9.3 2.5 1c.6.8.9 1.7.9 2.9zm-5.7 0c0 1 .2 1.7.6 2.2s.9.8 1.7.8c.7 0 1.3-.2 1.7-.7s.6-1.2.6-2.2-.2-1.7-.6-2.2-.9-.7-1.7-.7c-.7 0-1.3.2-1.7.7-.4.4-.6 1.2-.6 2.1zm11.1-3.8c.3 0 .6 0 .9.1l-.2 1.1c-.3-.1-.6-.1-.8-.1-.6 0-1.1.2-1.6.7-.4.5-.6 1.1-.6 1.8v4h-1.1v-7.5h.9l.1 1.4h.1c.3-.5.6-.9 1-1.1.4-.3.8-.4 1.3-.4zm6.9 7.6-.2-1.1h-.1c-.4.5-.7.8-1.1 1s-.8.2-1.4.2c-.7 0-1.3-.2-1.7-.6s-.6-.9-.6-1.6c0-1.5 1.2-2.3 3.6-2.4h1.3v-.5c0-.6-.1-1-.4-1.3-.2-.3-.7-.4-1.2-.4-.6 0-1.3.2-2.1.6l-.3-.9c.4-.2.8-.4 1.2-.5s.9-.2 1.3-.2c.9 0 1.6.2 2 .6s.6 1 .6 1.9v5.1zm-2.6-.8c.7 0 1.3-.2 1.7-.6s.6-.9.6-1.6v-.7h-1.1c-.9 0-1.6.2-2 .4s-.6.6-.6 1.2c0 .4.1.7.4.9.2.3.6.4 1 .4zm8.2 0h.6c.2 0 .3-.1.4-.1v.9c-.1.1-.3.1-.5.1s-.5.1-.6.1c-1.4 0-2.2-.8-2.2-2.3v-4.5h-1.1v-.5l1.1-.5.5-1.6h.7v1.7h2.2v.9h-2.2v4.4c0 .5.1.8.3 1 .1.3.4.4.8.4zm3.6.8h-1.1v-7.5h1.1zm-1.2-9.5c0-.3.1-.4.2-.6.1-.1.3-.2.5-.2s.3.1.5.2c.1.1.2.3.2.6s-.1.4-.2.6c-.1.1-.3.2-.5.2s-.4-.1-.5-.2c-.1-.2-.2-.4-.2-.6zm10.1 5.7c0 1.2-.3 2.2-.9 2.9s-1.5 1-2.5 1c-.7 0-1.3-.2-1.8-.5s-.9-.8-1.2-1.4-.4-1.3-.4-2.1c0-1.2.3-2.2.9-2.8.6-.7 1.5-1 2.5-1s1.9.3 2.5 1c.6.8.9 1.8.9 2.9zm-5.7 0c0 1 .2 1.7.6 2.2s.9.8 1.7.8c.7 0 1.3-.2 1.7-.7s.6-1.2.6-2.2-.2-1.7-.6-2.2-.9-.7-1.7-.7c-.7 0-1.3.2-1.7.7s-.6 1.2-.6 2.1zm12.8 3.8v-4.8c0-.6-.1-1.1-.4-1.4s-.7-.5-1.3-.5c-.8 0-1.4.2-1.7.6-.4.4-.5 1.1-.5 2.1v3.9h-1.1v-7.5h.9l.2 1h.1c.2-.4.6-.7 1-.9s.9-.3 1.4-.3c.9 0 1.6.2 2 .7.5.4.7 1.1.7 2.1v4.9z" fill="#8f90a3"/><path d="m78.5 56.9-4.1-11.9h-.1c.1 1.8.2 3.4.2 5v6.9h-2.1v-14.3h3.3l4 11.3h.1l4.1-11.3h3.3v14.3h-2.2v-7.1c0-.7 0-1.6 0-2.8 0-1.1.1-1.8.1-2.1h-.1l-4.3 11.9zm20.1-3.9c0 1.3-.5 2.3-1.4 3s-2.2 1.1-3.8 1.1-2.9-.3-4-.8v-2.2c.7.3 1.3.5 2.1.7.7.2 1.4.3 2 .3.9 0 1.6-.2 2-.5.4-.4.7-.8.7-1.4 0-.5-.2-1-.6-1.4s-1.2-.8-2.5-1.3-2.2-1.1-2.7-1.8-.8-1.5-.8-2.4c0-1.2.4-2.1 1.3-2.8.8-.7 2-1 3.4-1s2.7.3 4.1.9l-.7 1.9c-1.3-.5-2.4-.8-3.4-.8-.8 0-1.3.2-1.7.5s-.6.8-.6 1.3c0 .4.1.7.2 1 .2.3.4.5.8.7s1 .5 1.9.9c1 .4 1.8.8 2.3 1.2s.8.8 1.1 1.3c.2.4.3.9.3 1.6zm4.6 3.9h-2.3v-14.3h8v2h-5.7v4.5h5.4v2h-5.4zm12.9 0h-2.3v-12.3h-4.2v-2h10.7v2h-4.2z" fill="#434468"/><path d="m211.3 112.7h23.4v17h-23.4z" fill="#fff"/><path d="m210.2 136.1h24.4v13.8h-24.4z" fill="#fff" fill-opacity=".88"/><path d="m210.2 159.4h24.4v13.8h-24.4z" fill="#fff" fill-opacity=".88"/><path d="m225.3 142.6h-.8v-3.2c0-.4 0-.7 0-.9-.1.1-.1.1-.2.2s-.3.3-.8.6l-.4-.5 1.5-1.1h.7zm5-2.5c0 .9-.1 1.5-.4 1.9s-.7.6-1.3.6-1-.2-1.3-.7c-.3-.4-.4-1.1-.4-1.9 0-.9.1-1.5.4-1.9s.7-.6 1.3-.6 1 .2 1.3.7c.3.4.4 1 .4 1.9zm-2.5 0c0 .7.1 1.2.2 1.5s.4.4.7.4.5-.1.7-.4c.1-.3.2-.8.2-1.4 0-.7-.1-1.1-.2-1.4s-.4-.4-.7-.4-.5.1-.7.4c-.2.1-.2.6-.2 1.3zm6.5 0c0 .9-.1 1.5-.4 1.9s-.7.6-1.3.6-1-.2-1.3-.7c-.3-.4-.4-1.1-.4-1.9 0-.9.1-1.5.4-1.9s.7-.6 1.3-.6 1 .2 1.3.7c.3.4.4 1 .4 1.9zm-2.5 0c0 .7.1 1.2.2 1.5s.4.4.7.4.5-.1.7-.4c.1-.3.2-.8.2-1.4 0-.7-.1-1.1-.2-1.4s-.4-.4-.7-.4-.5.1-.7.4c-.2.1-.2.6-.2 1.3z" fill="#8f90a3"/><path d="m227.5 167 2-4.3h-2.6v-.7h3.4v.6l-2 4.4zm5.1-3.1c.5 0 .9.1 1.2.4s.4.6.4 1.1-.2.9-.5 1.2-.8.4-1.4.4-1-.1-1.3-.3v-.7c.2.1.4.2.6.2.2.1.5.1.7.1.4 0 .6-.1.8-.2.2-.2.3-.4.3-.7 0-.6-.4-.9-1.1-.9-.1 0-.2 0-.4 0s-.3 0-.4.1l-.4-.2.2-2.4h2.6v.7h-1.9l-.1 1.2h.3z" fill="#8f90a3"/><path d="m24.8 209c2-3.1 3.6-5.9 6-8.8.7-.8.7 1.1 1 1.5 0 0 .3-2.1.7-.3.1.3 3.5 5.2 4.5 2.4.3-.8.4-5 .9-2.8.5 2.1 1 .2 1.8.8.8.5 1.8-6.2 1.9-6.9.7-4.5.3-3 1.9-.1.5.9 2.1 1.3 2.1 1.5.1.7.4 6.1 1 5.4.8-.9 1.8-1.8 2.2-2.9.7-1.8.6-7.4 1.2-5.6.3.9 1.3 6.3 2.8 4.5 2.4-3 1.1-.5 4 .6 2 .8 3.1-3.8 4.2-3.2 1.3.7.9 6.9 1.4.7.5-6.1-.1-6.9 1-13.3.4-2.5 1.1-.6 1.6.4.7 1.5 4.1-5.8 4.4-6.5 1.6-3.7.9-.1 2.1 2.2 1.4 2.9 5.9-6.2 6.6-7.3 2.7-4.5 1.2 5.1 1.2 6.7.1 1.6-.1 11.7 2.7 6.3.6-1.1 1.5 5.1 1.7 5.9 1.3 5.1 2.2-1.8 2.9-3.3 1.2-2.6 1.8 5.4 2.9 8 1.3 3.1 3.2-5 3.6-6.3.6-2.2-.1 1.8.6-.2s1-11.2 2.8-12c.8-.3.8 4.3 1.4 4.3 1.4.1 1.2-5.2 2.3-2.4.3.8 2.5 7.6 3.6 7.1 1-.4 5-7.9 5.3-6.9.3.8 1.2 7.8 2.1 7 1.7-1.7 3.4-8.4 6.2-4.9 1.4 1.7 1.8 3.6 4 2.6.9-.4 2 4.6 2.6 5.3 1.2 1.4 3.6-3.3 4.1-4 1.6-2.6.3 1.2 1.5-.2 2.2-2.5 2.6-6.2 4.7-8.8 1.4-1.7.4 3.7 1.5 3.4 1.7-.4 3.8-4.6 5.6-4.2 1.2.3.1 4.1 1.9 4.2 1.5.1 2.6-2.6 4-.6 1.6 2.2.9 2.6 3.1.5 1-.9 5.5-5.2 7-3.9 1.3 1 1.1 6.4 3.6 4 2-1.9 4.5-4.6 5.6-7.1.1-.3-.3.6-.4.9-.2.8.8-.3.9-.4 1.4-1.1 6.3-6.1 8.2-5.3 2.4 1.1.1 3.1 4 0 2.6-2.1 3.9-13.6 4.9-9.5 1.1 4.6 3.8-13.2 6.5-15.1 2.5-1.8 5.3 35.3 6.5 38.2 1.8 4.1 1.7-11.9 3.9-14.7 4.7 6.5 4.6-5.9 4.7-5.4.7 1.9 3.7 12.8 5 14.3 3.2 3.6 3.4-8.2 7.5-8.1 1.7.1.9 1.7 3.2 0 .6-.4 1-1 1.6-1" style="fill:none;stroke:#434468;stroke-width:2.118;stroke-linecap:round;stroke-linejoin:round;opacity:.1"/><path d="m10 172.2c2-3.1 3.6-5.9 6-8.8.7-.8.7 1.1 1 1.5 0 0 .3-2.1.7-.3.1.3 3.5 5.2 4.5 2.4.3-.8.4-5 .9-2.8.5 2.1 1 .2 1.8.8.8.5 1.8-6.2 1.9-6.9.7-4.5.3-3 1.9-.1.5.9 2.1 1.3 2.1 1.5.1.7.4 6.1 1 5.4.8-.9 1.8-1.8 2.2-2.9.7-1.8.6-7.4 1.2-5.6.3.9 1.3 6.3 2.8 4.5 2.4-3 1.1-.5 4 .6 2 .8 3.1-3.8 4.2-3.2 1.3.7.9 6.9 1.4.7.5-6.1-.1-6.9 1-13.3.4-2.5 1.1-.6 1.6.4.7 1.5 4.1-5.8 4.4-6.5 1.6-3.7.9-.1 2.1 2.2 1.4 2.9 5.9-6.2 6.6-7.3 2.7-4.5 1.2 5.1 1.2 6.7.1 1.6-.1 11.7 2.7 6.3.6-1.1 1.5 5.1 1.7 5.9 1.3 5.1 2.2-1.8 2.9-3.3 1.2-2.6 1.8 5.4 2.9 8 1.3 3.1 3.2-5 3.6-6.3.6-2.2-.1 1.8.6-.2s1-11.2 2.8-12c.8-.3.8 4.3 1.4 4.3 1.4.1 1.2-5.2 2.3-2.4.3.8 2.5 7.6 3.6 7.1 1-.4 5-7.9 5.3-6.9.3.8 1.2 7.8 2.1 7 1.7-1.7 3.4-8.4 6.2-4.9 1.4 1.7 1.8 3.6 4 2.6.9-.4 2 4.6 2.6 5.3 1.2 1.4 3.6-3.3 4.1-4 1.6-2.6.3 1.2 1.5-.2 2.2-2.5 2.6-6.2 4.7-8.8 1.4-1.7.4 3.7 1.5 3.4 1.7-.4 3.8-4.6 5.6-4.2 1.2.3.1 4.1 1.9 4.2 1.5.1 2.6-2.6 4-.6 1.6 2.2.9 2.6 3.1.5 1-.9 5.5-5.2 7-3.9 1.3 1 1.1 6.4 3.6 4 2-1.9 4.5-4.6 5.6-7.1.1-.3-.3.6-.4.9-.2.8.8-.3.9-.4 1.4-1.1 6.3-6.1 8.2-5.3 2.4 1.1.1 3.1 4 0 2.6-2.1 3.9-13.6 4.9-9.5 1.1 4.6 3.8-13.2 6.5-15.1 2.5-1.8 5.3 35.3 6.5 38.2 1.8 4.1 1.7-11.9 3.9-14.7 4.7 6.5 4.6-5.9 4.7-5.4.7 1.9 3.7 12.8 5 14.3 3.2 3.6 3.4-8.2 7.5-8.1 1.7.1.9 1.7 3.2 0 .6-.4 1-1 1.6-1" fill="none" stroke="#5ac5a1" stroke-linecap="round" stroke-linejoin="round" stroke-width="1.3473"/><path d="m10 172.2c2-3.1 3.6-5.9 6-8.8.7-.8.7 1.1 1 1.5 0 0 .3-2.1.7-.3.1.3 3.5 5.2 4.5 2.4.3-.8.4-5 .9-2.8.5 2.1 1 .2 1.8.8.8.5 1.8-6.2 1.9-6.9.7-4.5.3-3 1.9-.1.5.9 2.1 1.3 2.1 1.5.1.7.4 6.1 1 5.4.8-.9 1.8-1.8 2.2-2.9.7-1.8.6-7.4 1.2-5.6.3.9 1.3 6.3 2.8 4.5 2.4-3 1.1-.5 4 .6 2 .8 3.1-3.8 4.2-3.2 1.3.7.9 6.9 1.4.7.5-6.1-.1-6.9 1-13.3.4-2.5 1.1-.6 1.6.4.7 1.5 4.1-5.8 4.4-6.5 1.6-3.7.9-.1 2.1 2.2 1.4 2.9 5.9-6.2 6.6-7.3 2.7-4.5 1.2 5.1 1.2 6.7.1 1.6-.1 11.7 2.7 6.3.6-1.1 1.5 5.1 1.7 5.9 1.3 5.1 2.2-1.8 2.9-3.3 1.2-2.6 1.8 5.4 2.9 8 1.3 3.1 3.2-5 3.6-6.3.6-2.2-.1 1.8.6-.2s1-11.2 2.8-12c.8-.3.8 4.3 1.4 4.3 1.4.1 1.2-5.2 2.3-2.4.3.8 2.5 7.6 3.6 7.1 1-.4 5-7.9 5.3-6.9.3.8 1.2 7.8 2.1 7 1.7-1.7 3.4-8.4 6.2-4.9 1.4 1.7 1.8 3.6 4 2.6.9-.4 2 4.6 2.6 5.3 1.2 1.4 3.6-3.3 4.1-4 1.6-2.6.3 1.2 1.5-.2 2.2-2.5 2.6-6.2 4.7-8.8 1.4-1.7.4 3.7 1.5 3.4 1.7-.4 3.8-4.6 5.6-4.2 1.2.3.1 4.1 1.9 4.2 1.5.1 2.6-2.6 4-.6 1.6 2.2.9 2.6 3.1.5 1-.9 5.5-5.2 7-3.9 1.3 1 1.1 6.4 3.6 4 2-1.9 4.5-4.6 5.6-7.1.1-.3-.3.6-.4.9-.2.8.8-.3.9-.4 1.4-1.1 6.3-6.1 8.2-5.3 2.4 1.1.1 3.1 4 0 2.6-2.1 3.9-13.6 4.9-9.5 1.1 4.6 3.8-13.2 6.5-15.1 2.5-1.8 5.3 35.3 6.5 38.2 1.8 4.1 1.7-11.9 3.9-14.7 4.7 6.5 4.6-5.9 4.7-5.4.7 1.9 3.7 12.8 5 14.3 3.2 3.6 3.4-8.2 7.5-8.1 1.7.1.9 1.7 3.2 0 .6-.4 1-1 1.6-1" fill="none" stroke="#5ac5a1" stroke-linecap="round" stroke-linejoin="round" stroke-width="1.3473"/><path d="m10 172.2c2-3.1 3.6-5.9 6-8.8.7-.8.7 1.1 1 1.5 0 0 .3-2.1.7-.3.1.3 3.5 5.2 4.5 2.4.3-.8.4-5 .9-2.8.5 2.1 1 .2 1.8.8.8.5 1.8-6.2 1.9-6.9.7-4.5.3-3 1.9-.1.5.9 2.1 1.3 2.1 1.5.1.7.4 6.1 1 5.4.8-.9 1.8-1.8 2.2-2.9.7-1.8.6-7.4 1.2-5.6.3.9 1.3 6.3 2.8 4.5 2.4-3 1.1-.5 4 .6 2 .8 3.1-3.8 4.2-3.2 1.3.7.9 6.9 1.4.7.5-6.1-.1-6.9 1-13.3.4-2.5 1.1-.6 1.6.4.7 1.5 4.1-5.8 4.4-6.5 1.6-3.7.9-.1 2.1 2.2 1.4 2.9 5.9-6.2 6.6-7.3 2.7-4.5 1.2 5.1 1.2 6.7.1 1.6-.1 11.7 2.7 6.3.6-1.1 1.5 5.1 1.7 5.9 1.3 5.1 2.2-1.8 2.9-3.3 1.2-2.6 1.8 5.4 2.9 8 1.3 3.1 3.2-5 3.6-6.3.6-2.2-.1 1.8.6-.2s1-11.2 2.8-12c.8-.3.8 4.3 1.4 4.3 1.4.1 1.2-5.2 2.3-2.4.3.8 2.5 7.6 3.6 7.1 1-.4 5-7.9 5.3-6.9.3.8 1.2 7.8 2.1 7 1.7-1.7 3.4-8.4 6.2-4.9 1.4 1.7 1.8 3.6 4 2.6.9-.4 2 4.6 2.6 5.3 1.2 1.4 3.6-3.3 4.1-4 1.6-2.6.3 1.2 1.5-.2 2.2-2.5 2.6-6.2 4.7-8.8 1.4-1.7.4 3.7 1.5 3.4 1.7-.4 3.8-4.6 5.6-4.2 1.2.3.1 4.1 1.9 4.2 1.5.1 2.6-2.6 4-.6 1.6 2.2.9 2.6 3.1.5 1-.9 5.5-5.2 7-3.9 1.3 1 1.1 6.4 3.6 4 2-1.9 4.5-4.6 5.6-7.1.1-.3-.3.6-.4.9-.2.8.8-.3.9-.4 1.4-1.1 6.3-6.1 8.2-5.3 2.4 1.1.1 3.1 4 0 2.6-2.1 3.9-13.6 4.9-9.5 1.1 4.6 3.8-13.2 6.5-15.1 2.5-1.8 5.3 35.3 6.5 38.2 1.8 4.1 1.7-11.9 3.9-14.7 4.7 6.5 4.6-5.9 4.7-5.4.7 1.9 3.7 12.8 5 14.3 3.2 3.6 3.4-8.2 7.5-8.1 1.7.1.9 1.7 3.2 0 .6-.4 1-1 1.6-1" fill="none" stroke="#5ac5a1" stroke-linecap="round" stroke-linejoin="round" stroke-width="2.118"/><path d="m9.9 153.4c2-3.1 3.6-5.9 6-8.8.7-.8.7 1.1 1 1.5 0 0 .3-2.1.7-.3.1.3 3.5 5.2 4.5 2.4.3-.8.4-5 .9-2.8.5 2.1 1 .2 1.8.8.8.5 1.8-6 1.9-6.8.7-4.5.3-3 1.9-.1.5.9 2.1 1.3 2.1 1.5.1.7.4 6.1 1 5.4.8-.9 1.8-1.8 2.2-2.9.7-1.8.6-7.4 1.2-5.6.3.9 1.4 6.3 2.8 4.5 2.4-3 1.1-.5 4 .6 2 .8 3.1-3.8 4.2-3.2 1.3.7.9 6.9 1.4.7.5-6.1-.1-6.9 1-13.3.4-2.5 1.1-.6 1.6.4.7 1.5 4.1-5.8 4.4-6.5 1.6-3.7.9-.1 2.1 2.2 1.4 2.9 5.9-6.2 6.6-7.3 2.7-4.5 1.2 5.1 1.2 6.7.1 1.6-.1 11.7 2.7 6.3.6-1.1 1.5 5.1 1.7 5.9 1.3 5.1 2.2-1.8 2.9-3.3 1.2-2.6 1.8 5.4 2.9 8 1.3 3.1 3.2-5 3.6-6.3.6-2.2-.1 1.8.6-.2s1-11.2 2.8-12c.8-.3.8 4.3 1.4 4.3 1.4.1 1.2-5.2 2.3-2.4.3.8 2.5 7.6 3.6 7.1 1-.4 5-7.9 5.3-6.8.3.8 1.2 7.8 2.1 7 1.7-1.7 3.4-8.4 6.2-4.9 1.4 1.7 1.8 3.6 4 2.6.9-.4 2 4.6 2.6 5.3 1.2 1.4 3.6-3.3 4.1-4 1.6-2.6.3 1.2 1.5-.2 2.2-2.5 2.6-6.2 4.7-8.8 1.4-1.7.4 3.7 1.5 3.4 1.7-.4 3.8-4.6 5.6-4.2 1.2.3.1 4.1 1.9 4.2 1.5.1 2.6-2.6 4-.6 1.6 2.2.9 2.6 3.1.5l.1-.1c1.1-1 5.4-5.1 7-3.9 1.3 1 1.1 6.4 3.6 4 1.9-1.8 4.3-4.3 5.5-6.7.1-.3.2-.5.1-.3 0 .1-.1.2-.1.3-.1.2-.2.4-.2.6-.2.8.8-.3.9-.4 1.4-1.1 6.3-6.1 8.2-5.3 2.4 1.1.1 3.1 4 0 2.6-2.1 3.9-13.6 4.9-9.5 1.1 4.6 3.8-13.2 6.5-15.1 2.5-1.8 5.3 35.3 6.5 38.2 1.8 4.1 1.7-11.9 3.9-14.7 4.7 6.5 4.6-5.9 4.7-5.4.7 1.9 3.7 12.8 5 14.3 3.2 3.6 3.4-8.2 7.5-8.1 1.7.1.9 1.7 3.2 0 .6-.4 1-1 1.6-1v79.9l-198.5-.2z" fill="url(#c)" fill-opacity=".2"/><path d="m225.3 120.3h-.8v-3.2c0-.4 0-.7 0-.9-.1.1-.1.1-.2.2s-.3.3-.8.6l-.4-.5 1.5-1.1h.7zm5 0h-3.4v-.6l1.3-1.3c.4-.4.6-.7.8-.8.1-.2.2-.3.3-.5.1-.1.1-.3.1-.5s-.1-.4-.2-.5-.3-.2-.6-.2c-.2 0-.4 0-.6.1s-.4.2-.6.4l-.4-.5c.3-.2.5-.4.8-.5s.5-.1.8-.1c.5 0 .8.1 1.1.4.3.2.4.6.4 1 0 .2 0 .4-.1.6s-.2.4-.4.6-.4.5-.8.9l-.9.8h2.4zm2.3-3.1c.5 0 .9.1 1.2.4s.4.6.4 1.1-.2.9-.5 1.2-.8.4-1.4.4-1-.1-1.3-.3v-.7c.2.1.4.2.6.2.2.1.5.1.7.1.4 0 .6-.1.8-.2.2-.2.3-.4.3-.7 0-.6-.4-.9-1.1-.9-.1 0-.2 0-.4 0s-.3 0-.4.1l-.4-.2.2-2.4h2.6v.7h-1.9l-.1 1.2h.3z" fill="#8f90a3"/><path d="m279.7 2h370.4c2.2 0 4 1.8 4 4v202c0 2.2-1.8 4-4 4h-370.4c-2.2 0-4-1.8-4-4v-202c0-2.2 1.8-4 4-4z" fill="#fff"/><path d="m307.8 60.6-1.6-4.1h-5.1l-1.6 4.1h-1.5l5.1-12.8h1.3l5 12.8zm-2-5.4-1.5-4c-.2-.5-.4-1.1-.6-1.8-.1.6-.3 1.2-.6 1.8l-1.5 4zm9.5 5.6c-.6 0-1.2-.1-1.7-.3s-.9-.6-1.3-1.1h-.1c.1.6.1 1.1.1 1.6v3.9h-1.5v-13.8h1.2l.2 1.3h.1c.4-.5.8-.9 1.3-1.1s1.1-.3 1.7-.3c1.3 0 2.2.4 2.9 1.3s1 2.1 1 3.7-.4 2.8-1.1 3.7c-.5.7-1.5 1.1-2.8 1.1zm-.2-8.7c-1 0-1.7.3-2.1.8s-.7 1.4-.7 2.6v.3c0 1.3.2 2.3.7 2.9.4.6 1.2.9 2.2.9.8 0 1.5-.3 1.9-1 .5-.7.7-1.6.7-2.8s-.2-2.1-.7-2.7c-.5-.7-1.1-1-2-1zm11.2 8.7c-.6 0-1.2-.1-1.7-.3s-.9-.6-1.3-1.1h-.1c.1.6.1 1.1.1 1.6v3.9h-1.5v-13.8h1.2l.2 1.3h.1c.4-.5.8-.9 1.3-1.1s1.1-.3 1.7-.3c1.3 0 2.2.4 2.9 1.3s1 2.1 1 3.7-.4 2.8-1.1 3.7c-.6.7-1.5 1.1-2.8 1.1zm-.2-8.7c-1 0-1.7.3-2.1.8s-.7 1.4-.7 2.6v.3c0 1.3.2 2.3.7 2.9.4.6 1.2.9 2.2.9.8 0 1.5-.3 1.9-1 .5-.7.7-1.6.7-2.8s-.2-2.1-.7-2.7c-.5-.7-1.1-1-2-1zm8.2 8.5h-1.5v-13.6h1.5zm7.1.2c-1.4 0-2.5-.4-3.4-1.3-.8-.9-1.2-2.1-1.2-3.6s.4-2.8 1.1-3.7c.8-.9 1.8-1.4 3.1-1.4 1.2 0 2.2.4 2.8 1.2.7.8 1 1.8 1 3.1v.9h-6.6c0 1.1.3 2 .8 2.6s1.3.9 2.3.9 2.1-.2 3.1-.6v1.3c-.5.2-1 .4-1.5.5-.3.1-.8.1-1.5.1zm-.4-8.7c-.8 0-1.4.2-1.8.8-.5.5-.7 1.2-.8 2.1h5c0-.9-.2-1.6-.6-2.1-.4-.6-1-.8-1.8-.8zm11.3 8.5v-12.7h1.5v12.8h-1.5zm11.3 0v-6.2c0-.8-.2-1.4-.5-1.7-.4-.4-.9-.6-1.7-.6-1 0-1.7.3-2.2.8s-.7 1.4-.7 2.7v5h-1.5v-9.6h1.2l.2 1.3h.1c.3-.5.7-.8 1.3-1.1.5-.3 1.1-.4 1.8-.4 1.2 0 2 .3 2.6.8.6.6.9 1.4.9 2.7v6.3zm8.3.2c-1.4 0-2.5-.4-3.2-1.3-.8-.9-1.1-2.1-1.1-3.6 0-1.6.4-2.8 1.2-3.7s1.9-1.3 3.3-1.3c.5 0 .9 0 1.4.1s.8.2 1.1.3l-.4 1.2c-.3-.1-.7-.2-1-.3-.4-.1-.7-.1-1-.1-1.9 0-2.9 1.2-2.9 3.7 0 1.2.2 2.1.7 2.7s1.2.9 2.1.9c.8 0 1.6-.2 2.5-.5v1.3c-.9.4-1.7.6-2.7.6z" fill="#8f90a3"/><path d="m310.3 37.9-1.6-4.5h-6.2l-1.6 4.5h-2.9l6.1-16.4h2.9l6.1 16.4zm-2.4-6.8-1.5-4.4c-.1-.3-.3-.8-.5-1.4s-.3-1.1-.4-1.4c-.2.9-.5 1.9-.9 3l-1.5 4.2zm17 6.8-1.6-4.5h-6.3l-1.6 4.5h-2.8l6.1-16.4h2.9l6.1 16.4zm-2.3-6.8-1.5-4.4c-.1-.3-.3-.8-.5-1.4s-.3-1.1-.4-1.4c-.2.9-.5 1.9-.9 3l-1.5 4.2zm17.6-4.5c0 1.7-.6 3-1.7 3.9s-2.7 1.4-4.8 1.4h-1.7v6.1h-2.7v-16.3h4.7c2 0 3.6.4 4.6 1.2 1.1.8 1.6 2.1 1.6 3.7zm-8.1 3h1.4c1.4 0 2.4-.2 3-.7s1-1.2 1-2.2c0-.9-.3-1.6-.9-2.1s-1.5-.7-2.7-.7h-1.9v5.7zm10.9 8.3v-16.2h2.7v14h6.9v2.3h-9.6z" fill="#434468"/><path d="m333.3 191.8c0 1.4-.4 2.6-1.1 3.4s-1.7 1.2-3.1 1.2c-1.3 0-2.4-.4-3.1-1.2s-1.1-1.9-1.1-3.4.4-2.6 1.1-3.4 1.8-1.2 3.1-1.2 2.3.4 3.1 1.2c.8.9 1.1 2 1.1 3.4zm-6.7 0c0 1.1.2 1.9.7 2.5.4.6 1.1.8 2 .8s1.5-.3 1.9-.8c.4-.6.7-1.4.7-2.5s-.2-1.9-.7-2.5c-.4-.6-1.1-.8-1.9-.8-.9 0-1.5.3-2 .8-.5.6-.7 1.5-.7 2.5zm11.2 4.6c-1 0-1.8-.3-2.3-.9s-.8-1.4-.8-2.6c0-1.1.3-2 .8-2.6.6-.6 1.4-.9 2.4-.9.7 0 1.3.1 1.9.4l-.4 1.1c-.6-.2-1.1-.4-1.5-.4-1.2 0-1.7.8-1.7 2.3 0 .8.1 1.3.4 1.7s.7.6 1.3.6 1.2-.2 1.8-.5v1.2c-.3.2-.5.3-.8.3-.4.3-.7.3-1.1.3zm5.9-1.1c.3 0 .7-.1 1-.2v1.1c-.2.1-.4.1-.6.2-.2 0-.5.1-.8.1-1.3 0-2-.7-2-2.1v-3.6h-.9v-.8l1-.5.5-1.4h.9v1.5h1.9v1.1h-1.9v3.6c0 .3.1.6.3.8.1.1.3.2.6.2zm11.1 1h-6v-1.1l2.3-2.3c.7-.7 1.1-1.2 1.3-1.5s.4-.6.5-.8c.1-.3.2-.5.2-.8 0-.4-.1-.7-.4-.9-.2-.2-.6-.3-1-.3-.3 0-.7.1-1 .2s-.7.4-1.1.7l-.8-.9c.5-.4 1-.7 1.4-.9.5-.2 1-.3 1.5-.3.8 0 1.5.2 2 .6s.7 1 .7 1.7c0 .4-.1.8-.2 1.1-.1.4-.4.7-.7 1.1s-.8.9-1.5 1.5l-1.5 1.5v.1h4.2v1.3zm7.1-4.4c0 1.5-.2 2.7-.7 3.4s-1.2 1.1-2.3 1.1c-1 0-1.7-.4-2.2-1.2s-.8-1.9-.8-3.4c0-1.6.2-2.7.7-3.5.5-.7 1.3-1.1 2.3-1.1s1.7.4 2.2 1.2c.6.8.8 2 .8 3.5zm-4.5 0c0 1.2.1 2.1.4 2.6s.6.8 1.2.8c.5 0 .9-.3 1.2-.8s.4-1.4.4-2.6-.1-2-.4-2.6c-.3-.5-.6-.8-1.2-.8-.5 0-.9.3-1.2.8s-.4 1.4-.4 2.6zm9.8 4.4h-1.4v-5.7c0-.7 0-1.2 0-1.6-.1.1-.2.2-.3.3s-.6.5-1.4 1.1l-.7-.9 2.6-2h1.2zm5.9-9c.8 0 1.5.2 2 .6s.7.9.7 1.5c0 .9-.5 1.6-1.6 2.2.7.3 1.2.7 1.5 1.1s.4.8.4 1.3c0 .7-.3 1.3-.8 1.8-.5.4-1.3.7-2.2.7-1 0-1.7-.2-2.2-.6s-.8-1-.8-1.8c0-.5.1-.9.4-1.3s.7-.7 1.4-1.1c-.5-.3-.9-.7-1.2-1-.2-.4-.3-.8-.3-1.2 0-.6.3-1.2.8-1.5.4-.5 1.1-.7 1.9-.7zm-1.6 6.7c0 .4.1.7.4 1 .3.2.7.3 1.2.3s.9-.1 1.2-.4c.3-.2.4-.6.4-1 0-.3-.1-.6-.4-.9s-.7-.5-1.2-.8l-.2-.1c-.5.2-.9.5-1.2.8-.1.4-.2.7-.2 1.1zm1.6-5.6c-.4 0-.7.1-1 .3-.2.2-.4.5-.4.8 0 .2 0 .4.1.6s.2.3.4.5c.2.1.5.3.9.5.5-.2.8-.4 1-.7.2-.2.3-.5.3-.8s-.1-.6-.4-.8c-.2-.3-.5-.4-.9-.4z" fill="#8f90a3"/><path d="m440.4 198.8c-.4 0-.7-.1-1-.2v-1.2c.3.1.6.1.9.1.8 0 1.2-.5 1.2-1.5v-8.6h1.5v8.5c0 .9-.2 1.6-.6 2.1-.6.5-1.2.8-2 .8zm8.8-2.5-.3-.9c-.3.4-.6.7-1 .8-.3.1-.7.2-1.3.2-.7 0-1.2-.2-1.5-.5-.4-.4-.6-.9-.6-1.5 0-.7.3-1.2.8-1.6s1.3-.5 2.3-.6h1.2v-.4c0-.4-.1-.7-.3-1-.2-.2-.5-.3-.9-.3-.3 0-.7 0-1 .2-.3.1-.6.2-.9.4l-.5-1c.4-.2.8-.3 1.2-.4s.8-.2 1.2-.2c.9 0 1.5.2 1.9.6s.7 1 .7 1.8v4.5h-1zm-2.1-1c.5 0 .9-.1 1.2-.4s.5-.7.5-1.2v-.6h-.9c-.7 0-1.2.1-1.5.3s-.5.5-.5.9c0 .3.1.5.3.7.3.2.6.3.9.3zm11 1h-1.4v-4.1c0-.5-.1-.9-.3-1.2s-.5-.4-1-.4c-.6 0-1 .2-1.3.5-.3.4-.4 1-.4 1.8v3.3h-1.4v-6.7h1.1l.2.9h.1c.2-.3.5-.6.9-.7.4-.2.8-.3 1.2-.3 1.6 0 2.4.8 2.4 2.5v4.4zm10.8 0h-6v-1.1l2.3-2.3c.7-.7 1.1-1.2 1.3-1.5s.4-.6.5-.8c.1-.3.2-.5.2-.8 0-.4-.1-.7-.4-.9-.2-.2-.6-.3-1-.3-.3 0-.7.1-1 .2s-.7.4-1.1.7l-.8-.9c.5-.4 1-.7 1.4-.9.5-.2 1-.3 1.5-.3.8 0 1.5.2 2 .6s.7 1 .7 1.7c0 .4-.1.8-.2 1.1-.1.4-.4.7-.7 1.1s-.8.9-1.5 1.5l-1.5 1.5v.1h4.2v1.3zm7.1-4.4c0 1.5-.2 2.7-.7 3.4s-1.2 1.1-2.3 1.1c-1 0-1.7-.4-2.2-1.2s-.8-1.9-.8-3.4c0-1.6.2-2.7.7-3.5.5-.7 1.3-1.1 2.3-1.1s1.7.4 2.2 1.2.8 2 .8 3.5zm-4.6 0c0 1.2.1 2.1.4 2.6s.6.8 1.2.8c.5 0 .9-.3 1.2-.8s.4-1.4.4-2.6-.1-2-.4-2.6c-.3-.5-.6-.8-1.2-.8-.5 0-.9.3-1.2.8s-.4 1.4-.4 2.6zm9.8 4.4h-1.4v-5.7c0-.7 0-1.2 0-1.6-.1.1-.2.2-.3.3s-.6.5-1.4 1.1l-.7-.9 2.6-2h1.2zm8.9-5.1c0 1.7-.4 3-1.1 3.9s-1.8 1.3-3.2 1.3c-.5 0-.9 0-1.2-.1v-1.2c.4.1.7.2 1.1.2 1 0 1.7-.3 2.2-.8s.7-1.3.8-2.4h-.1c-.2.4-.5.6-.9.8-.3.2-.7.2-1.2.2-.8 0-1.4-.2-1.8-.7s-.7-1.2-.7-2c0-.9.3-1.7.8-2.2s1.2-.8 2.1-.8c.6 0 1.2.2 1.6.5.5.3.8.8 1.1 1.3.4.5.5 1.2.5 2zm-3.1-2.7c-.5 0-.9.2-1.1.5-.3.3-.4.8-.4 1.4 0 .5.1.9.4 1.2.2.3.6.4 1.1.4s.9-.1 1.2-.4.5-.6.5-1-.1-.7-.2-1-.3-.6-.6-.7c-.2-.3-.5-.4-.9-.4z" fill="#8f90a3"/><path d="m574 196.3-.9-2.5h-3.4l-.9 2.5h-1.5l3.3-8.9h1.6l3.3 8.9zm-1.3-3.7-.8-2.4c-.1-.2-.1-.4-.3-.8-.1-.3-.2-.6-.2-.8-.1.5-.3 1-.5 1.6l-.8 2.3h2.6zm7.2 3.8c-.8 0-1.5-.3-2-.9h-.1c.1.6.1.9.1 1v2.7h-1.4v-9.7h1.2c0 .1.1.4.2.9h.1c.4-.7 1.1-1 2-1 .8 0 1.5.3 2 .9s.7 1.5.7 2.6-.2 1.9-.7 2.6c-.6.6-1.2.9-2.1.9zm-.3-5.8c-.6 0-1 .2-1.2.5-.3.3-.4.9-.4 1.6v.2c0 .8.1 1.4.4 1.8s.7.5 1.3.5c.5 0 .9-.2 1.1-.6.3-.4.4-1 .4-1.7 0-.8-.1-1.3-.4-1.7s-.7-.6-1.2-.6zm8.1-1.1c.3 0 .5 0 .7.1l-.1 1.3c-.2 0-.4-.1-.6-.1-.6 0-1 .2-1.4.6s-.5.9-.5 1.4v3.5h-1.4v-6.7h1.1l.2 1.2h.1c.2-.4.5-.7.9-1 .2-.2.6-.3 1-.3zm10.7 6.8h-6v-1.1l2.3-2.3c.7-.7 1.1-1.2 1.3-1.5s.4-.6.5-.8c.1-.3.2-.5.2-.8 0-.4-.1-.7-.4-.9-.2-.2-.6-.3-1-.3-.3 0-.7.1-1 .2s-.7.4-1.1.7l-.8-.9c.5-.4 1-.7 1.4-.9.5-.2 1-.3 1.5-.3.8 0 1.5.2 2 .6s.7 1 .7 1.7c0 .4-.1.8-.2 1.1-.1.4-.4.7-.7 1.1s-.8.9-1.5 1.5l-1.5 1.5v.1h4.2v1.3zm7.1-4.4c0 1.5-.2 2.7-.7 3.4s-1.2 1.1-2.3 1.1c-1 0-1.7-.4-2.2-1.2s-.8-1.9-.8-3.4c0-1.6.2-2.7.7-3.5.5-.7 1.3-1.1 2.3-1.1s1.7.4 2.2 1.2.8 2 .8 3.5zm-4.6 0c0 1.2.1 2.1.4 2.6s.6.8 1.2.8c.5 0 .9-.3 1.2-.8s.4-1.4.4-2.6-.1-2-.4-2.6c-.3-.5-.6-.8-1.2-.8-.5 0-.9.3-1.2.8s-.4 1.4-.4 2.6zm9.8 4.4h-1.4v-5.7c0-.7 0-1.2 0-1.6-.1.1-.2.2-.3.3s-.6.5-1.4 1.1l-.7-.9 2.6-2h1.2zm8.9-5.1c0 1.7-.4 3-1.1 3.9s-1.8 1.3-3.2 1.3c-.5 0-.9 0-1.2-.1v-1.2c.4.1.7.2 1.1.2 1 0 1.7-.3 2.2-.8s.7-1.3.8-2.4h-.1c-.2.4-.5.6-.9.8-.3.2-.7.2-1.2.2-.8 0-1.4-.2-1.8-.7s-.7-1.2-.7-2c0-.9.3-1.7.8-2.2s1.2-.8 2.1-.8c.6 0 1.2.2 1.6.5.5.3.8.8 1.1 1.3.4.5.5 1.2.5 2zm-3.1-2.7c-.5 0-.9.2-1.1.5-.3.3-.4.8-.4 1.4 0 .5.1.9.4 1.2.2.3.6.4 1.1.4s.9-.1 1.2-.4.5-.6.5-1-.1-.7-.2-1-.3-.6-.6-.7c-.2-.3-.5-.4-.9-.4z" fill="#8f90a3"/><path d="m654.2 131c-3.9-2-6.9-3.9-11.5-5.8-1.3-.5-1.3.7-2 1 0 0-.5-1.4-1.4-.2-.1.2-6.7 3.4-8.5 1.6-.5-.5-.7-3.3-1.8-1.9-1 1.4-1.8.2-3.5.5-1.5.3-3.4-4.1-3.6-4.5-1.3-2.9-.6-2-3.7-.1-.9.6-4 .9-4 1-.1.5-.7 4-2 3.5-1.5-.6-3.4-1.2-4.2-1.9-1.3-1.2-1.1-4.9-2.2-3.7-.5.6-2.6 4.1-5.3 3-4.6-1.9-2.2-.3-7.6.4-3.7.5-5.9-2.5-8-2.1-2.5.5-1.6 4.6-2.6.5-.9-4 .3-4.5-1.8-8.8-.8-1.6-2.1-.4-3.1.3-1.3 1-7.9-3.8-8.4-4.3-3.1-2.5-1.7-.1-4 1.5-2.7 1.9-11.3-4.1-12.5-4.8-5.2-3-2.2 3.4-2.4 4.4-.1 1 .2 7.7-5.2 4.2-1.1-.7-2.9 3.3-3.3 3.8-2.5 3.3-4.2-1.2-5.5-2.2-2.3-1.7-3.5 3.5-5.6 5.2-2.5 2.1-6.1-3.3-6.8-4.2-1.2-1.4.2 1.2-1.1-.1s-2-7.4-5.3-7.9c-1.5-.2-1.5 2.8-2.7 2.8-2.7.1-2.2-3.4-4.4-1.6-.6.5-4.8 5-6.9 4.7-2-.3-9.4-5.2-10.1-4.5-.5.5-2.4 5.1-4 4.6-3.3-1.1-6.4-5.5-11.8-3.2-2.6 1.1-3.5 2.4-7.6 1.7-1.7-.3-3.7 3-4.9 3.5-2.2.9-6.9-2.1-7.7-2.6-3-1.7-.6.8-2.9-.1-4.2-1.6-5-4.1-9-5.8-2.6-1.1-.8 2.4-2.8 2.3-3.2-.3-7.2-3-10.6-2.7-2.3.2-.2 2.7-3.7 2.8-2.9.1-5-1.7-7.6-.4-3 1.5-1.7 1.7-6 .3h-.1c-2.1-.7-10.3-3.3-13.2-2.5-2.4.6-2.2 4.2-6.8 2.6-3.6-1.2-8.1-2.9-10.4-4.4-.2-.2-.4-.3-.3-.2s.2.1.3.2c.2.1.4.3.4.4.3.5-1.5-.2-1.8-.3-2.6-.7-12-4-15.6-3.5-4.6.7-.3 2-7.6 0-4.9-1.4-7.5-8.9-9.4-6.3-2.2 3-7.2-8.7-12.4-10-4.7-1.2-10 23.2-12.4 25.1-3.3 2.7-3.3-7.8-7.5-9.6-9 4.3-8.7-3.9-9-3.6-1.3 1.2-7 8.4-9.6 9.4-6 2.4-6.5-5.4-14.2-5.3-3.2 0-1.7 1.1-6.1 0-1.1-.3-1.8-.7-3.1-.7v84.2h378.1v-55.7z" fill="url(#d)" fill-opacity=".2"/><path d="m654.2 132.4c-3.9-2.1-6.9-4-11.5-6-1.3-.5-1.3.8-2 1 0 0-.5-1.4-1.4-.2-.1.2-6.7 3.6-8.5 1.6-.5-.5-.7-3.4-1.8-1.9-1 1.4-1.8.2-3.5.5-1.5.3-3.4-4.2-3.6-4.7-1.3-3-.6-2-3.7-.1-.9.6-4 .9-4 1-.1.5-.7 4.1-2 3.6-1.5-.6-3.4-1.2-4.2-2-1.3-1.2-1.1-5-2.2-3.8-.5.6-2.6 4.3-5.3 3.1-4.6-2-2.2-.3-7.6.4-3.7.5-5.9-2.6-8-2.2-2.5.5-1.6 4.7-2.6.5-.9-4.2.3-4.7-1.8-9.1-.8-1.7-2.1-.4-3.1.3-1.3 1-7.9-4-8.4-4.4-3.1-2.5-1.7-.1-4 1.5-2.7 2-11.3-4.2-12.5-5-5.2-3.1-2.2 3.5-2.4 4.5-.1 1.1.2 7.9-5.2 4.3-1.1-.8-2.9 3.5-3.3 4-2.5 3.4-4.2-1.2-5.5-2.2-2.3-1.7-3.5 3.6-5.6 5.4-2.5 2.1-6.1-3.4-6.8-4.3-1.2-1.5.2 1.2-1.1-.1s-2-7.6-5.3-8.2c-1.5-.2-1.5 2.9-2.7 2.9-2.7.1-2.2-3.5-4.4-1.6-.6.5-4.8 5.2-6.9 4.8-2-.3-9.4-5.3-10.1-4.7-.5.5-2.4 5.3-4 4.8-3.3-1.1-6.4-5.7-11.8-3.3-2.6 1.1-3.5 2.5-7.6 1.7-1.7-.3-3.7 3.1-4.9 3.6-2.2 1-6.9-2.2-7.7-2.7-3-1.8-.6.8-2.9-.1-4.2-1.7-5-4.2-9-6-2.6-1.1-.8 2.5-2.8 2.3-3.2-.3-7.2-3.1-10.6-2.8-2.3.2-.2 2.8-3.7 2.9-2.9.1-5-1.8-7.6-.4-3 1.5-1.7 1.8-6 .3-1.8-.6-10.4-3.5-13.4-2.7-2.4.7-2.2 4.3-6.8 2.7-3.7-1.3-8.5-3.1-10.7-4.8-.3-.2.6.4.7.6.3.5-1.5-.2-1.8-.3-2.6-.7-12-4.2-15.6-3.6-4.6.7-.3 2.1-7.6 0-4.9-1.4-7.5-9.2-9.4-6.5-2.2 3.1-7.2-9-12.4-10.3-4.7-1.2-10 24-12.4 25.9-3.3 2.8-3.3-8.1-7.5-10-9 4.4-8.7-4-9-3.7-1.3 1.3-7 8.7-9.6 9.7-6 2.5-6.5-5.6-14.2-5.5-3.2 0-1.7 1.2-6.1 0-1.1-.3-1.8-.7-3.1-.7" fill="none" stroke="#fc7373" stroke-linecap="round" stroke-linejoin="round" stroke-width="2.118"/><path d="m596.8 67.3v-1.6h4v1.6zm13-2.2c0 2-.3 3.5-1 4.4-.6 1-1.6 1.4-2.9 1.4s-2.2-.5-2.9-1.5-1-2.5-1-4.4c0-2 .3-3.5 1-4.5.6-1 1.6-1.4 2.9-1.4s2.2.5 2.9 1.5c.7 1.1 1 2.5 1 4.5zm-5.9 0c0 1.6.2 2.7.5 3.3.3.7.8 1 1.5 1s1.2-.3 1.5-1 .5-1.8.5-3.3-.2-2.6-.5-3.3-.8-1-1.5-1-1.2.3-1.5 1c-.3.6-.5 1.7-.5 3.3zm7.7 4.7c0-.4.1-.7.3-.9s.5-.3.9-.3.7.1.9.3.3.5.3.9-.1.7-.3.9-.5.3-.9.3-.7-.1-.9-.3-.3-.5-.3-.9zm9.4 1h-1.8v-7.4c0-.9 0-1.6.1-2.1-.1.1-.3.3-.4.4-.2.2-.8.6-1.8 1.4l-.9-1.2 3.4-2.6h1.5v11.5zm3.8-4.9c0-4.5 1.8-6.7 5.5-6.7.6 0 1.1 0 1.5.1v1.5c-.4-.1-.9-.2-1.4-.2-1.2 0-2.1.3-2.8 1-.6.7-.9 1.7-1 3.2h.1c.2-.4.6-.7 1-1 .4-.2 1-.4 1.6-.4 1 0 1.8.3 2.4 1 .6.6.9 1.5.9 2.6 0 1.2-.3 2.1-1 2.8s-1.6 1-2.7 1c-.8 0-1.5-.2-2.1-.6s-1.1-1-1.4-1.7c-.4-.6-.6-1.5-.6-2.6zm4 3.5c.6 0 1.1-.2 1.5-.6.3-.4.5-1 .5-1.7s-.2-1.2-.5-1.5c-.3-.4-.8-.6-1.4-.6-.4 0-.8.1-1.1.3s-.6.4-.8.7-.3.6-.3.9c0 .7.2 1.4.6 1.9.4.4.9.6 1.5.6z" fill="#fc7373"/><path d="m557.6 44.9h-3.2v-12.9c0-1.5 0-2.8.1-3.7-.2.2-.5.5-.8.7-.3.3-1.3 1.1-3.1 2.5l-1.6-2 5.9-4.6h2.7zm20.5-4.3h-2.7v4.4h-3.1v-4.4h-9.1v-2.5l9.1-13.2h3.1v13h2.7zm-5.8-2.7v-5c0-1.8 0-3.2.1-4.4h-.1c-.3.6-.7 1.3-1.2 2.2l-5 7.2zm20.1-8.4c0 1.3-.4 2.3-1.1 3.2-.7.8-1.8 1.4-3.1 1.7v.1c1.6.2 2.8.7 3.6 1.5s1.2 1.9 1.2 3.2c0 1.9-.7 3.4-2 4.5-1.4 1-3.3 1.6-5.8 1.6-2.2 0-4.1-.4-5.6-1.1v-2.9c.8.4 1.7.7 2.7 1 .9.2 1.9.3 2.7.3 1.5 0 2.7-.3 3.5-.9s1.1-1.5 1.1-2.7c0-1.1-.4-1.8-1.3-2.4-.8-.5-2.2-.8-4-.8h-1.7v-2.6h1.8c3.2 0 4.8-1.1 4.8-3.3 0-.9-.3-1.5-.8-2-.6-.5-1.4-.7-2.5-.7-.8 0-1.5.1-2.2.3s-1.5.6-2.5 1.2l-1.6-2.2c1.8-1.3 4-2 6.4-2 2 0 3.6.4 4.7 1.3 1.1 1 1.7 2.2 1.7 3.7zm3.5 13.7c0-.7.2-1.2.5-1.5.3-.4.8-.5 1.5-.5s1.2.2 1.5.6.5.9.5 1.5-.2 1.2-.5 1.5c-.3.4-.8.6-1.5.6s-1.2-.2-1.5-.6-.5-.9-.5-1.6zm20.4-8.3c0 3.5-.6 6.1-1.7 7.7-1.1 1.7-2.8 2.5-5.1 2.5-2.2 0-3.9-.9-5.1-2.6-1.1-1.7-1.7-4.3-1.7-7.7 0-3.5.6-6.1 1.7-7.8s2.8-2.5 5.1-2.5c2.2 0 3.9.9 5.1 2.6 1.1 1.9 1.7 4.5 1.7 7.8zm-10.3 0c0 2.7.3 4.7.8 5.8.6 1.2 1.5 1.8 2.7 1.8s2.1-.6 2.7-1.8.9-3.1.9-5.8-.3-4.6-.9-5.8-1.5-1.8-2.7-1.8-2.1.6-2.7 1.8-.8 3.1-.8 5.8zm21.9 10h-3.2v-12.9c0-1.5 0-2.8.1-3.7-.2.2-.5.5-.8.7-.3.3-1.3 1.1-3.1 2.5l-1.6-2 5.9-4.6h2.7z" fill="#434468"/><path d="m350.7 163.8v14.6" fill="none" stroke="#a0b1c6" stroke-opacity=".27" stroke-width="1.1769"/><path d="m465.8 163.8v14.6" fill="none" stroke="#a0b1c6" stroke-opacity=".27" stroke-width="1.1769"/><path d="m594 163.8v14.6" fill="none" stroke="#a0b1c6" stroke-opacity=".27" stroke-width="1.1769"/><path d="m126.4 231 452.8.2c1.9 0 3.4 1.3 3.4 3v42.8c0 1.6-1.5 2.9-3.4 2.9l-452.8-.2c-1.9 0-3.4-1.3-3.4-3v-42.8c0-1.6 1.5-2.9 3.4-2.9z" fill="#fff"/><path d="m141.9 259.2h-2.1v-5.8-.9-1c-.4.4-.6.6-.7.7l-1.1.9-1-1.3 3.2-2.6h1.7zm9.3-7.8c0 .6-.2 1.2-.6 1.6s-.9.7-1.6.9c.8.1 1.4.3 1.8.7s.6.9.6 1.6c0 1-.3 1.7-1 2.2s-1.7.8-3 .8c-1.1 0-2-.2-2.9-.5v-1.8c.4.2.8.4 1.3.5s.9.2 1.4.2c.7 0 1.2-.1 1.5-.4.3-.2.5-.6.5-1.1s-.2-.8-.6-1-1-.3-1.8-.3h-.8v-1.6h.8c.8 0 1.3-.1 1.7-.3s.5-.6.5-1c0-.8-.5-1.1-1.4-1.1-.3 0-.7.1-1 .2s-.7.3-1.1.6l-1-1.5c.9-.7 2-1 3.3-1 1 0 1.8.2 2.4.6.7.4 1 1 1 1.7zm8.6 5.7h-1.2v2.1h-2.1v-2.1h-4.3v-1.5l4.4-6.4h1.9v6.3h1.2zm-3.2-1.6v-1.7c0-.3 0-.7 0-1.2s0-.8.1-.9h-.1c-.2.4-.4.7-.6 1.1l-1.8 2.8zm4.3 2.7c0-.4.1-.7.3-.9s.5-.3.9-.3.7.1.9.3.3.5.3.9-.1.6-.3.9c-.2.2-.5.3-.9.3s-.7-.1-.9-.3-.3-.5-.3-.9zm4.7 1 3.8-8.2h-4.9v-1.8h7.2v1.3l-3.8 8.6zm8 0 3.8-8.2h-4.9v-1.8h7.2v1.3l-3.8 8.6z" fill="#434468"/><path d="m198.9 254.9h-2.7v-1.2h2.7v-2.8h1.2v2.8h2.7v1.2h-2.7v2.8h-1.2zm12-.7c0 1.7-.3 3-.8 3.9-.6.8-1.4 1.3-2.6 1.3-1.1 0-2-.4-2.5-1.3-.6-.9-.9-2.1-.9-3.8 0-1.8.3-3.1.8-3.9.6-.8 1.4-1.3 2.6-1.3 1.1 0 2 .4 2.5 1.3.6.9.9 2.1.9 3.8zm-5.1 0c0 1.4.1 2.3.4 2.9s.7.9 1.3.9 1.1-.3 1.3-.9c.3-.6.4-1.6.4-2.9s-.1-2.3-.4-2.9-.7-.9-1.3-.9-1.1.3-1.3.9c-.3.6-.4 1.6-.4 2.9zm6.6 4.2c0-.3.1-.6.3-.8s.4-.3.8-.3c.3 0 .6.1.8.3s.3.4.3.8c0 .3-.1.6-.3.8s-.4.3-.8.3c-.3 0-.6-.1-.8-.3s-.3-.5-.3-.8zm10.4-4.2c0 1.7-.3 3-.8 3.9-.6.8-1.4 1.3-2.6 1.3-1.1 0-2-.4-2.5-1.3-.6-.9-.9-2.1-.9-3.8 0-1.8.3-3.1.8-3.9.6-.8 1.4-1.3 2.6-1.3 1.1 0 2 .4 2.5 1.3.6.9.9 2.2.9 3.8zm-5.2 0c0 1.4.1 2.3.4 2.9s.7.9 1.3.9 1.1-.3 1.3-.9c.3-.6.4-1.6.4-2.9s-.1-2.3-.4-2.9-.7-.9-1.3-.9-1.1.3-1.3.9-.4 1.6-.4 2.9zm10 1.2c0-1.2.2-2.3.5-3.4.4-1.1.9-2 1.5-2.8h1.4c-.6.9-1.1 1.8-1.5 2.9-.3 1.1-.5 2.1-.5 3.3 0 1.1.2 2.2.5 3.2s.8 2 1.4 2.8h-1.4c-.7-.8-1.2-1.7-1.5-2.7s-.4-2.1-.4-3.3zm11.2-1.2c0 1.7-.3 3-.8 3.9-.6.8-1.4 1.3-2.6 1.3-1.1 0-2-.4-2.5-1.3-.6-.9-.9-2.1-.9-3.8 0-1.8.3-3.1.8-3.9.6-.8 1.4-1.3 2.6-1.3 1.1 0 2 .4 2.5 1.3.7.9.9 2.2.9 3.8zm-5.1 0c0 1.4.1 2.3.4 2.9s.7.9 1.3.9 1.1-.3 1.3-.9c.3-.6.4-1.6.4-2.9s-.1-2.3-.4-2.9-.7-.9-1.3-.9-1.1.3-1.3.9c-.3.6-.4 1.6-.4 2.9zm6.7 4.2c0-.3.1-.6.3-.8s.4-.3.8-.3c.3 0 .6.1.8.3s.3.4.3.8c0 .3-.1.6-.3.8s-.4.3-.8.3c-.3 0-.6-.1-.8-.3-.3-.2-.3-.5-.3-.8zm10.3-4.1c0 1.7-.3 3-.8 3.9-.6.8-1.4 1.3-2.6 1.3-1.1 0-2-.4-2.5-1.3-.6-.9-.9-2.1-.9-3.8 0-1.8.3-3.1.8-3.9.6-.8 1.4-1.3 2.6-1.3 1.1 0 2 .4 2.5 1.3.6.8.9 2.1.9 3.8zm-5.2-.1c0 1.4.1 2.3.4 2.9s.7.9 1.3.9 1.1-.3 1.3-.9c.3-.6.4-1.6.4-2.9s-.1-2.3-.4-2.9-.7-.9-1.3-.9-1.1.3-1.3.9-.4 1.6-.4 2.9zm7.7-1.9c0 .7.1 1.2.2 1.5s.3.5.6.5c.6 0 .9-.7.9-2s-.3-2-.9-2c-.3 0-.5.2-.6.5s-.2.8-.2 1.5zm3.1-.1c0 1-.2 1.8-.6 2.4-.4.5-.9.8-1.7.8-.7 0-1.2-.3-1.6-.8s-.6-1.3-.6-2.3c0-2.1.7-3.1 2.2-3.1.7 0 1.3.3 1.6.8.5.5.7 1.2.7 2.2zm3.4 4c0 .7.1 1.2.2 1.5s.4.5.7.5c.6 0 .9-.7.9-2s-.3-2-.9-2c-.3 0-.5.2-.7.5-.1.4-.2.9-.2 1.5zm3.1 0c0 1-.2 1.8-.6 2.4-.4.5-.9.8-1.7.8-.7 0-1.2-.3-1.6-.8s-.6-1.3-.6-2.3c0-2.1.7-3.1 2.2-3.1.7 0 1.2.3 1.6.8.5.5.7 1.2.7 2.2zm-2-6.9-5.5 10h-1.3l5.5-10zm6.4 6.1c0 1.2-.2 2.3-.5 3.3-.4 1-.9 1.9-1.5 2.7h-1.4c.6-.9 1.1-1.8 1.4-2.8s.5-2.1.5-3.2-.2-2.2-.5-3.3-.8-2-1.5-2.9h1.4c.7.8 1.2 1.7 1.5 2.8.5 1.1.6 2.2.6 3.4z" fill="#5ac5a1"/><path d="m287.1 239.7-.1 30.7" fill="none" stroke="#a0b1c6" stroke-opacity=".27" stroke-width="2"/><path d="m311.1 259.3-1-2.8h-3.8l-1 2.8h-1.7l3.7-10h1.8l3.7 10zm-1.4-4.2-.9-2.7c-.1-.2-.2-.5-.3-.9s-.2-.7-.2-.9c-.1.6-.3 1.2-.5 1.8l-.9 2.6zm10.7 4.2-1-2.8h-3.8l-1 2.8h-1.7l3.7-10h1.8l3.7 10zm-1.5-4.1-.9-2.7c-.1-.2-.2-.5-.3-.9s-.2-.7-.2-.9c-.1.6-.3 1.2-.5 1.8l-.9 2.6zm11.1-2.8c0 1-.3 1.8-1 2.4s-1.7.8-2.9.8h-1v3.7h-1.6v-10h2.9c1.2 0 2.2.3 2.8.8.5.5.8 1.3.8 2.3zm-5 1.8h.9c.8 0 1.5-.1 1.8-.4.4-.3.6-.7.6-1.4 0-.6-.2-1-.5-1.3-.4-.3-.9-.4-1.6-.4h-1.1zm7 5.1v-10h1.6v8.6h4.2v1.4z" fill="#434468"/><path d="m433.5 259.4h-2.1v-5.8-.9-1c-.4.4-.6.6-.7.7l-1.1.9-1-1.3 3.2-2.6h1.7zm10-2.1h-1.2v2.1h-2.1v-2.1h-4.3v-1.5l4.4-6.4h1.9v6.3h1.2zm-3.2-1.6v-1.7c0-.3 0-.7 0-1.2s0-.8.1-.9h-.1c-.2.4-.4.7-.6 1.1l-1.8 2.8zm11.2 1.6h-1.2v2.1h-2.1v-2.1h-4.3v-1.5l4.4-6.4h1.9v6.3h1.2zm-3.2-1.6v-1.7c0-.3 0-.7 0-1.2s0-.8.1-.9h-.1c-.2.4-.4.7-.6 1.1l-1.8 2.8zm4.2 2.7c0-.4.1-.7.3-.9s.5-.3.9-.3.7.1.9.3.3.5.3.9-.1.6-.3.9c-.2.2-.5.3-.9.3s-.7-.1-.9-.3-.3-.5-.3-.9zm7.2-9.1c1 0 1.7.2 2.3.7.6.4.9 1 .9 1.8 0 .5-.1 1-.4 1.4s-.7.8-1.4 1.1c.7.4 1.3.8 1.6 1.3.3.4.5.9.5 1.4 0 .8-.3 1.5-1 2-.6.5-1.5.7-2.5.7-1.1 0-2-.2-2.6-.7s-.9-1.1-.9-2c0-.6.2-1.1.5-1.5s.8-.8 1.5-1.2c-.6-.4-1-.7-1.2-1.2-.3-.4-.4-.9-.4-1.3 0-.7.3-1.3.9-1.7.5-.6 1.3-.8 2.2-.8zm-1.5 7.4c0 .4.1.7.4.9s.6.3 1.1.3.9-.1 1.2-.3.4-.5.4-.9c0-.3-.1-.6-.4-.9s-.7-.6-1.3-.9c-.9.6-1.4 1.2-1.4 1.8zm1.5-5.9c-.4 0-.7.1-.9.3s-.3.4-.3.7.1.5.3.7.5.4 1 .7c.4-.2.8-.4.9-.6.2-.2.3-.5.3-.8s-.1-.6-.3-.7c-.3-.2-.6-.3-1-.3zm9.8 8.6h-2.1v-5.8-.9-1c-.4.3-.6.6-.7.7l-1.1.9-1-1.3 3.2-2.6h1.7z" fill="#434468"/><path d="m356.6 259.3-1-2.8h-3.8l-1 2.8h-1.7l3.7-10h1.8l3.7 10zm-1.4-4.1-.9-2.7c-.1-.2-.2-.5-.3-.9s-.2-.7-.2-.9c-.1.6-.3 1.2-.5 1.8l-.9 2.6zm8.1 4.3c-1 0-1.7-.3-2.2-1h-.1c.1.6.1 1 .1 1.2v3.1h-1.6v-10.9h1.3c0 .1.1.5.2 1h.1c.5-.8 1.3-1.1 2.3-1.1.9 0 1.7.3 2.2 1s.8 1.6.8 2.9c0 1.2-.3 2.2-.8 2.9-.6.5-1.4.9-2.3.9zm-.4-6.5c-.6 0-1.1.2-1.4.6s-.4 1-.4 1.8v.2c0 .9.1 1.6.4 2s.8.6 1.4.6 1-.2 1.3-.7.5-1.1.5-1.9-.1-1.5-.4-1.9c-.4-.5-.8-.7-1.4-.7zm9.1 6.5c-1 0-1.7-.3-2.2-1h-.1c.1.6.1 1 .1 1.2v3.1h-1.6v-10.9h1.3c0 .1.1.5.2 1h.1c.5-.8 1.3-1.1 2.3-1.1.9 0 1.7.3 2.2 1s.8 1.6.8 2.9c0 1.2-.3 2.2-.8 2.9-.6.5-1.3.9-2.3.9zm-.4-6.5c-.6 0-1.1.2-1.4.6s-.4 1-.4 1.8v.2c0 .9.1 1.6.4 2s.8.6 1.4.6 1-.2 1.3-.7.5-1.1.5-1.9-.1-1.5-.4-1.9c-.4-.5-.8-.7-1.4-.7zm6.9 6.4h-1.6v-10.6h1.6zm5.6.1c-1.2 0-2.1-.3-2.8-1s-1-1.6-1-2.8.3-2.2.9-2.9 1.5-1.1 2.5-1.1 1.8.3 2.4.9.9 1.4.9 2.5v.9h-5c0 .7.2 1.3.6 1.7s.9.6 1.6.6c.4 0 .9 0 1.2-.1.4-.1.8-.2 1.2-.4v1.3c-.4.2-.8.3-1.2.4-.3 0-.8 0-1.3 0zm-.3-6.6c-.5 0-.9.2-1.2.5s-.5.8-.5 1.4h3.4c0-.6-.2-1.1-.5-1.4-.3-.4-.7-.5-1.2-.5zm8.9 6.5v-10h1.6v10zm10.7 0h-1.6v-4.6c0-.6-.1-1-.4-1.3-.2-.3-.6-.4-1.1-.4-.7 0-1.2.2-1.5.6s-.5 1.1-.5 2v3.8h-1.6v-7.6h1.3l.2 1h.1c.2-.4.6-.6 1-.8s.9-.3 1.4-.3c1.8 0 2.7.9 2.7 2.8zm5.3.1c-1.1 0-2-.3-2.6-1s-.9-1.6-.9-2.9.3-2.2.9-2.9 1.5-1 2.7-1c.8 0 1.5.1 2.2.4l-.5 1.3c-.7-.3-1.2-.4-1.7-.4-1.3 0-2 .9-2 2.6 0 .8.2 1.5.5 1.9s.8.6 1.4.6c.7 0 1.4-.2 2-.5v1.4c-.3.2-.6.3-.9.4-.2.1-.6.1-1.1.1z" fill="#8f90a3"/><path d="m486.2 255.1h-2.7v-1.2h2.7v-2.8h1.2v2.8h2.7v1.2h-2.7v2.8h-1.2zm12-.7c0 1.7-.3 3-.8 3.9-.6.8-1.4 1.3-2.6 1.3-1.1 0-2-.4-2.5-1.3-.6-.9-.9-2.1-.9-3.8 0-1.8.3-3.1.8-3.9.6-.8 1.4-1.3 2.6-1.3 1.1 0 2 .4 2.5 1.3.6.9.9 2.1.9 3.8zm-5.1 0c0 1.4.1 2.3.4 2.9s.7.9 1.3.9 1.1-.3 1.3-.9c.3-.6.4-1.6.4-2.9s-.1-2.3-.4-2.9-.7-.9-1.3-.9-1.1.3-1.3.9c-.3.6-.4 1.6-.4 2.9zm6.6 4.2c0-.3.1-.6.3-.8s.4-.3.8-.3c.3 0 .6.1.8.3s.3.4.3.8c0 .3-.1.6-.3.8s-.4.3-.8.3c-.3 0-.6-.1-.8-.3-.2-.3-.3-.5-.3-.8zm8.3.8h-1.6v-6.4c0-.8 0-1.4.1-1.8-.1.1-.2.2-.4.4-.2.1-.7.6-1.5 1.3l-.8-1 2.9-2.3h1.3zm3.3-4.2c0-3.9 1.6-5.9 4.8-5.9.5 0 .9 0 1.3.1v1.3c-.3-.1-.7-.2-1.2-.1-1.1 0-1.9.3-2.4.9s-.8 1.5-.9 2.8h.1c.2-.4.5-.7.9-.9s.8-.3 1.4-.3c.9 0 1.6.3 2.1.8.5.6.8 1.3.8 2.3s-.3 1.9-.9 2.5-1.4.9-2.4.9c-.7 0-1.3-.2-1.9-.5-.5-.3-.9-.8-1.2-1.5s-.5-1.5-.5-2.4zm3.5 3c.6 0 1-.2 1.3-.5.3-.4.4-.9.5-1.5 0-.6-.1-1-.4-1.4-.3-.3-.7-.5-1.3-.5-.3 0-.7.1-1 .2s-.5.3-.7.6-.3.5-.3.8c0 .6.2 1.2.5 1.6.4.5.9.7 1.4.7zm8.1-2.6c0-1.2.2-2.3.5-3.4.4-1.1.9-2 1.5-2.8h1.4c-.6.9-1.1 1.8-1.5 2.9-.3 1.1-.5 2.1-.5 3.3 0 1.1.2 2.2.5 3.2s.8 2 1.4 2.8h-1.4c-.7-.8-1.2-1.7-1.5-2.7s-.4-2.1-.4-3.3zm11.2-1.2c0 1.7-.3 3-.8 3.9-.6.8-1.4 1.3-2.6 1.3-1.1 0-2-.4-2.5-1.3-.6-.9-.9-2.1-.9-3.8 0-1.8.3-3.1.8-3.9.6-.8 1.4-1.3 2.6-1.3 1.1 0 2 .4 2.5 1.3.7.9.9 2.2.9 3.8zm-5.1 0c0 1.4.1 2.3.4 2.9s.7.9 1.3.9 1.1-.3 1.3-.9c.3-.6.4-1.6.4-2.9s-.1-2.3-.4-2.9-.7-.9-1.3-.9-1.1.3-1.3.9c-.3.6-.4 1.6-.4 2.9zm6.7 4.2c0-.3.1-.6.3-.8s.4-.3.8-.3c.3 0 .6.1.8.3s.3.4.3.8c0 .3-.1.6-.3.8s-.4.3-.8.3c-.3 0-.6-.1-.8-.3-.3-.2-.3-.5-.3-.8zm10.3-4.2c0 1.7-.3 3-.8 3.9-.6.8-1.4 1.3-2.6 1.3-1.1 0-2-.4-2.5-1.3-.6-.9-.9-2.1-.9-3.8 0-1.8.3-3.1.8-3.9.6-.8 1.4-1.3 2.6-1.3 1.1 0 2 .4 2.5 1.3.6.9.9 2.2.9 3.8zm-5.2 0c0 1.4.1 2.3.4 2.9s.7.9 1.3.9 1.1-.3 1.3-.9c.3-.6.4-1.6.4-2.9s-.1-2.3-.4-2.9-.7-.9-1.3-.9-1.1.3-1.3.9-.4 1.6-.4 2.9zm13.2-.7c0 2-.4 3.4-1.2 4.4s-2 1.5-3.6 1.5c-.6 0-1 0-1.3-.1v-1.3c.4.1.8.2 1.2.2 1.1 0 1.9-.3 2.4-.9s.8-1.5.9-2.7h-.1c-.3.4-.6.7-1 .9s-.8.3-1.3.3c-.9 0-1.6-.3-2.1-.8-.5-.6-.8-1.3-.8-2.3s.3-1.9.9-2.5 1.4-.9 2.4-.9c.7 0 1.3.2 1.9.5.5.3.9.8 1.2 1.5.3.5.5 1.3.5 2.2zm-3.5-3c-.6 0-1 .2-1.3.5-.3.4-.4.9-.4 1.5s.1 1 .4 1.3.7.5 1.3.5c.5 0 1-.2 1.4-.5s.6-.7.6-1.1-.1-.8-.2-1.1c-.2-.4-.4-.6-.7-.8-.4-.2-.8-.3-1.1-.3zm6 1.7c0 .7.1 1.2.2 1.5s.3.5.6.5c.6 0 .9-.7.9-2s-.3-2-.9-2c-.3 0-.5.2-.6.5-.1.4-.2.9-.2 1.5zm3.1 0c0 1-.2 1.8-.6 2.4-.4.5-.9.8-1.7.8-.7 0-1.2-.3-1.6-.8s-.6-1.3-.6-2.3c0-2.1.7-3.1 2.2-3.1.7 0 1.3.3 1.6.8.5.5.7 1.2.7 2.2zm3.4 4c0 .7.1 1.2.2 1.5s.4.5.7.5c.6 0 .9-.7.9-2s-.3-2-.9-2c-.3 0-.5.2-.7.5-.1.4-.2.9-.2 1.5zm3.1 0c0 1-.2 1.8-.6 2.4-.4.5-.9.8-1.7.8-.7 0-1.2-.3-1.6-.8s-.6-1.3-.6-2.3c0-2.1.7-3.1 2.2-3.1.7 0 1.2.3 1.6.8.5.5.7 1.2.7 2.2zm-2.1-6.9-5.5 10h-1.3l5.5-10zm6.5 6.1c0 1.2-.2 2.3-.5 3.3-.4 1-.9 1.9-1.5 2.7h-1.4c.6-.9 1.1-1.8 1.4-2.8s.5-2.1.5-3.2-.2-2.2-.5-3.3-.8-2-1.5-2.9h1.4c.7.8 1.2 1.7 1.5 2.8.4 1.1.6 2.2.6 3.4z" fill="#5ac5a1"/><path d="m499.2 322.4c-.3 0-.6 0-.8-.1v-1c.3.1.5.1.8.1.7 0 1-.4 1-1.3v-7.3h1.2v7.3c0 .8-.2 1.4-.6 1.8-.3.3-.9.5-1.6.5zm8.1-2.1-.2-.7h-.1c-.2.3-.4.5-.7.6-.3.2-.7.2-1.1.2-.7 0-1.2-.2-1.6-.5-.3-.3-.5-.9-.5-1.6v-3.7h1.2v3.5c0 .4.1.8.3 1s.5.3.8.3c.5 0 .9-.2 1.1-.5s.4-.8.4-1.5v-2.9h1.2v5.7h-.8zm3.9 0h-1.2v-8h1.2zm9.2 0h-5.1v-.9l1.9-2c.6-.6 1-1 1.1-1.3.2-.2.3-.5.4-.7s.1-.4.1-.7-.1-.6-.3-.8-.5-.3-.8-.3-.6.1-.8.2c-.3.1-.6.3-.9.6l-.7-.8c.4-.4.8-.6 1.2-.8.4-.1.8-.2 1.3-.2.7 0 1.3.2 1.7.6s.6.9.6 1.5c0 .3-.1.7-.2 1s-.3.6-.6 1c-.3.3-.7.8-1.3 1.3l-1.3 1.3v.1h3.6v.9zm2.6-1.1c-.2.6-.5 1.5-.9 2.5h-.9c.2-.9.4-1.8.5-2.6h1.2zm9 1.1h-5.1v-.9l2-2c.6-.6 1-1 1.1-1.3.2-.2.3-.5.4-.7s.1-.4.1-.7-.1-.6-.3-.8-.5-.3-.8-.3-.6.1-.8.2c-.3.1-.6.3-.9.6l-.7-.8c.4-.4.8-.6 1.2-.8.4-.1.8-.2 1.3-.2.7 0 1.3.2 1.7.6s.6.9.6 1.5c0 .3-.1.7-.2 1s-.3.6-.6 1c-.3.3-.7.8-1.3 1.3l-1.3 1.3v.1h3.6zm6.1-3.8c0 1.3-.2 2.3-.6 2.9s-1.1 1-1.9 1-1.5-.3-1.9-1-.7-1.6-.7-2.9.2-2.3.6-2.9 1.1-1 1.9-1 1.5.3 1.9 1c.4.6.7 1.6.7 2.9zm-3.9 0c0 1 .1 1.8.3 2.2s.6.7 1 .7c.5 0 .8-.2 1-.7.2-.4.3-1.2.3-2.2s-.1-1.7-.3-2.2-.6-.7-1-.7c-.5 0-.8.2-1 .7-.2.4-.3 1.2-.3 2.2zm8.4 3.8h-1.2v-4.9c0-.6 0-1 0-1.4-.1.1-.2.2-.3.3s-.5.4-1.2 1l-.6-.8 2.2-1.7h1v7.5zm5-7.7c.7 0 1.3.2 1.7.5s.6.8.6 1.3c0 .8-.5 1.4-1.4 1.9.6.3 1 .6 1.3.9s.4.7.4 1.1c0 .6-.2 1.1-.7 1.5s-1.1.6-1.9.6-1.5-.2-1.9-.5c-.5-.4-.7-.8-.7-1.5 0-.4.1-.8.4-1.1.2-.3.6-.6 1.2-.9-.5-.3-.8-.6-1-.9s-.3-.7-.3-1c0-.5.2-1 .6-1.3.4-.4 1-.6 1.7-.6zm-1.4 5.7c0 .4.1.6.4.8s.6.3 1 .3.8-.1 1-.3.4-.5.4-.8-.1-.5-.3-.8c-.2-.2-.6-.4-1-.6l-.2-.1c-.5.2-.8.4-1 .7-.2.2-.3.5-.3.8zm1.4-4.7c-.3 0-.6.1-.8.3s-.3.4-.3.7c0 .2 0 .3.1.5.1.1.2.3.3.4s.4.3.7.4c.4-.2.7-.4.9-.6s.3-.4.3-.7-.1-.5-.3-.7c-.3-.3-.6-.3-.9-.3z" fill="#fff"/><path d="m486.4 301.7h77.1c1.8 0 3.3 1.5 3.3 3.3v22.8c0 1.8-1.5 3.3-3.3 3.3h-77.1c-1.8 0-3.3-1.5-3.3-3.3v-22.8c-.1-1.8 1.4-3.3 3.3-3.3z" fill="none" stroke="#fff" stroke-width="1.1667"/><path d="m615.3 322.4c-.3 0-.6 0-.8-.1v-1c.3.1.5.1.8.1.7 0 1-.4 1-1.3v-7.3h1.2v7.3c0 .8-.2 1.4-.6 1.8-.3.3-.9.5-1.6.5zm8.1-2.1-.2-.7h-.1c-.2.3-.4.5-.7.6-.3.2-.7.2-1.1.2-.7 0-1.2-.2-1.6-.5-.3-.3-.5-.9-.5-1.6v-3.7h1.2v3.5c0 .4.1.8.3 1s.5.3.8.3c.5 0 .9-.2 1.1-.5s.4-.8.4-1.5v-2.9h1.2v5.7h-.8zm7.7 0h-1.2v-3.5c0-.4-.1-.8-.3-1s-.5-.3-.8-.3c-.5 0-.9.2-1.1.5s-.4.8-.4 1.5v2.9h-1.2v-5.7h1l.2.8h.1c.2-.3.4-.5.7-.6s.7-.2 1.1-.2c1.4 0 2.1.7 2.1 2.1v3.5zm4.1-3.2c0-3 1.2-4.4 3.6-4.4.4 0 .7 0 1 .1v1c-.3-.1-.6-.1-.9-.1-.8 0-1.4.2-1.8.7-.4.4-.6 1.1-.7 2.1h.1c.2-.3.4-.5.7-.6.3-.2.6-.2 1-.2.7 0 1.2.2 1.6.6s.6 1 .6 1.7c0 .8-.2 1.4-.7 1.9-.4.5-1 .7-1.8.7-.5 0-1-.1-1.4-.4s-.7-.6-.9-1.1c-.3-.7-.4-1.3-.4-2zm2.6 2.3c.4 0 .7-.1 1-.4.2-.3.3-.7.3-1.2 0-.4-.1-.8-.3-1s-.5-.4-1-.4c-.3 0-.5.1-.7.2s-.4.3-.5.5-.2.4-.2.6c0 .5.1.9.4 1.2.2.3.6.5 1 .5zm5-.2c-.2.6-.5 1.5-.9 2.5h-.9c.2-.9.4-1.8.5-2.6h1.2zm9.1 1.1h-5.1v-.9l1.9-2c.6-.6 1-1 1.1-1.3.2-.2.3-.5.4-.7s.1-.4.1-.7-.1-.6-.3-.8-.5-.3-.8-.3-.6.1-.8.2c-.3.1-.6.3-.9.6l-.7-.8c.4-.4.8-.6 1.2-.8.4-.1.8-.2 1.3-.2.7 0 1.3.2 1.7.6s.6.9.6 1.5c0 .3-.1.7-.2 1s-.3.6-.6 1c-.3.3-.7.8-1.3 1.3l-1.3 1.3v.1h3.6v.9zm6-3.8c0 1.3-.2 2.3-.6 2.9s-1.1 1-1.9 1-1.5-.3-1.9-1-.7-1.6-.7-2.9.2-2.3.6-2.9 1.1-1 1.9-1 1.5.3 1.9 1c.5.6.7 1.6.7 2.9zm-3.9 0c0 1 .1 1.8.3 2.2s.6.7 1 .7c.5 0 .8-.2 1-.7.2-.4.3-1.2.3-2.2s-.1-1.7-.3-2.2-.6-.7-1-.7c-.5 0-.8.2-1 .7-.2.4-.3 1.2-.3 2.2zm8.4 3.8h-1.2v-4.9c0-.6 0-1 0-1.4-.1.1-.2.2-.3.3s-.5.4-1.2 1l-.6-.8 2.2-1.7h1v7.5zm7.6-4.4c0 1.5-.3 2.6-.9 3.3s-1.5 1.1-2.7 1.1c-.5 0-.8 0-1-.1v-1c.3.1.6.1.9.1.8 0 1.4-.2 1.8-.7.4-.4.6-1.1.7-2.1h-.1c-.2.3-.4.5-.7.7-.3.1-.6.2-1 .2-.7 0-1.2-.2-1.6-.6s-.6-1-.6-1.7c0-.8.2-1.4.7-1.9.4-.5 1-.7 1.8-.7.5 0 1 .1 1.4.4s.7.6.9 1.1c.3.6.4 1.2.4 1.9zm-2.6-2.3c-.4 0-.7.1-1 .4-.2.3-.3.7-.3 1.2 0 .4.1.8.3 1s.5.4 1 .4c.4 0 .8-.1 1-.4.3-.2.4-.5.4-.9 0-.3-.1-.6-.2-.9s-.3-.5-.5-.6-.4-.2-.7-.2z" fill="#fff"/><path d="m604.4 301.7h77.1c1.8 0 3.3 1.5 3.3 3.3v22.8c0 1.8-1.5 3.3-3.3 3.3h-77.1c-1.8 0-3.3-1.5-3.3-3.3v-22.8c-.1-1.8 1.4-3.3 3.3-3.3z" fill="none" stroke="#fff" stroke-width="1.1667"/><g fill="#fff"><path d="m581.6 319.4c.3 0 .6 0 .9-.1v.9c-.1.1-.3.1-.5.1s-.4.1-.7.1c-1.2 0-1.7-.6-1.7-1.8v-3.1h-.8v-.5l.8-.4.4-1.2h.7v1.3h1.6v.9h-1.6v3.1c0 .3.1.5.2.7.3-.1.4 0 .7 0zm7.1-2c0 .9-.2 1.7-.7 2.2s-1.1.8-2 .8c-.5 0-1-.1-1.4-.4-.4-.2-.7-.6-.9-1-.2-.5-.3-1-.3-1.6 0-.9.2-1.7.7-2.2s1.1-.8 2-.8c.8 0 1.5.3 2 .8.4.6.6 1.3.6 2.2zm-4.2 0c0 1.3.5 2 1.5 2s1.4-.7 1.4-2-.5-2-1.5-2c-.5 0-.9.2-1.1.5-.2.4-.3.9-.3 1.5z"/><path d="m501.8 506.8h-1.7v-6.7c0-.8 0-1.4.1-1.9-.1.1-.2.2-.4.4-.2.1-.7.6-1.6 1.3l-.8-1.1 3.1-2.4h1.4v10.4zm8.7 0-3-8.7h-.1c.1 1.3.1 2.5.1 3.6v5.1h-1.5v-10.4h2.4l2.9 8.3 3-8.3h2.4v10.4h-1.6v-5.2c0-.5 0-1.2 0-2s.1-1.3.1-1.5h-.1l-3.1 8.7z"/><path d="m503.8 471.5c0 .7-.2 1.2-.6 1.7-.4.4-.9.7-1.6.9v.1c.8.1 1.5.4 1.9.8s.6 1 .6 1.7c0 1-.4 1.8-1.1 2.3s-1.7.8-3 .8c-1.2 0-2.1-.2-2.9-.6v-1.5c.4.2.9.4 1.4.5s1 .2 1.4.2c.8 0 1.4-.2 1.8-.4.4-.3.6-.8.6-1.4s-.2-1-.7-1.2c-.4-.3-1.1-.4-2.1-.4h-.9v-1.4h.9c1.7 0 2.5-.6 2.5-1.7 0-.4-.1-.8-.4-1s-.7-.4-1.3-.4c-.4 0-.8.1-1.1.2-.4.1-.8.3-1.3.6l-.8-1.2c1-.7 2.1-1.1 3.3-1.1 1.1 0 1.9.2 2.5.7.6.4.9 1 .9 1.8zm6.9 8-3-8.7h-.1c.1 1.3.1 2.5.1 3.6v5.1h-1.5v-10.4h2.4l2.9 8.3 3-8.3h2.4v10.4h-1.6v-5.2c0-.5 0-1.2 0-2s.1-1.3.1-1.5h-.1l-3.1 8.7z"/><path d="m497.2 447.7c0-4.1 1.7-6.1 5-6.1.5 0 1 0 1.3.1v1.4c-.4-.1-.8-.2-1.3-.2-1.1 0-2 .3-2.5.9-.6.6-.9 1.6-.9 2.9h.1c.2-.4.5-.7.9-.9s.9-.3 1.4-.3c.9 0 1.7.3 2.2.9s.8 1.4.8 2.4c0 1.1-.3 2-.9 2.6s-1.4.9-2.5.9c-.7 0-1.4-.2-1.9-.5-.6-.4-1-.9-1.3-1.6s-.4-1.5-.4-2.5zm3.6 3.2c.6 0 1-.2 1.3-.6s.5-.9.5-1.6c0-.6-.1-1.1-.4-1.4s-.7-.5-1.3-.5c-.4 0-.7.1-1 .2-.3.2-.5.4-.7.6-.2.3-.3.5-.3.8 0 .7.2 1.2.5 1.7.4.6.9.8 1.4.8zm10 1.3-3-8.7h-.1c.1 1.3.1 2.5.1 3.6v5.1h-1.5v-10.4h2.4l2.9 8.3 3-8.3h2.4v10.4h-1.6v-5.2c0-.5 0-1.2 0-2s.1-1.3.1-1.5h-.1l-3.1 8.7z"/><path d="m498 419.2 2.5-4.8h1.9l-3.5 6.4v4h-1.7v-4l-3.5-6.4h1.9zm9.3 5.7h-1.7v-9h-3.1v-1.5h7.8v1.5h-3.1v9zm13.1-5.3c0 1.7-.5 3-1.4 4-1 .9-2.3 1.4-4.1 1.4h-2.9v-10.4h3.2c1.7 0 3 .4 3.9 1.3.9.8 1.3 2.1 1.3 3.7zm-1.8.1c0-2.5-1.2-3.7-3.5-3.7h-1.5v7.6h1.2c2.6-.1 3.8-1.4 3.8-3.9z"/><path d="m503.5 397.8h-1.7v-6.7c0-.8 0-1.4.1-1.9-.1.1-.2.2-.4.4-.2.1-.7.6-1.6 1.3l-.8-1.1 3.1-2.4h1.4v10.4zm7.1-5.7 2.5-4.8h1.9l-3.5 6.4v4h-1.7v-4l-3.5-6.4h1.9z"/></g><path d="m494.4 349.3h23.7c5.1 0 9.2 4.1 9.2 9.2v5.3c0 5.1-4.1 9.2-9.2 9.2h-23.7c-5.1 0-9.2-4.1-9.2-9.2v-5.3c.1-5.1 4.2-9.2 9.2-9.2z" fill="#5ac5a1"/><path d="m505.2 366.4-1-2.9h-4l-1 2.9h-1.8l3.9-10.5h1.9l3.9 10.5zm-1.5-4.4-1-2.8c-.1-.2-.2-.5-.3-.9s-.2-.7-.3-.9c-.1.6-.3 1.2-.6 1.9l-.9 2.7zm6.2 4.4h-1.7v-11.1h1.7zm4.1 0h-1.7v-11.1h1.7z" fill="#fff"/></svg>